<svg width="708" height="979" viewBox="0 0 708 979" fill="none" xmlns="http://www.w3.org/2000/svg">
<path d="M84.5382 679.502C-0.295751 498.34 -5.28143 302.223 2.81884 220.683C10.9184 139.143 27.1183 72.7231 27.1183 72.7231C27.1183 72.7231 42.673 63.4536 62.4888 55.7134C97.0486 42.2134 225.299 0.363087 353.549 0.36374C481.798 0.363087 610.048 42.2134 644.608 55.7134C664.424 63.4536 679.979 72.7231 679.979 72.7231C679.979 72.7231 696.179 139.143 704.278 220.683C712.377 302.223 707.393 498.34 622.558 679.502C510.958 917.823 353.549 978.303 353.549 978.303C353.549 978.303 196.138 917.823 84.5382 679.502V679.502Z" fill="url(#paint0_radial)"/>
<path d="M272.248 797.466C275.896 797.466 278.226 798.152 279.371 799.561C280.485 800.932 281.026 803.473 281.026 807.333V854.134H269.225C269.225 854.134 269.225 809.375 269.225 808.538C268.515 808.276 262.46 806.049 262.46 806.049V797.466H272.248V797.466ZM319.894 796.656C326.209 796.656 330.959 797.974 334.015 800.574C337.099 803.201 338.664 807.79 338.664 814.223V836.383C338.664 842.388 337.071 846.983 333.929 850.042C330.792 853.098 326.292 854.648 320.554 854.648C314.806 854.648 310.457 853.145 307.631 850.182C304.809 847.227 303.379 843.238 303.379 838.328V837.716H314.479V838.328C314.479 839.152 314.59 839.974 314.809 840.773C315.007 841.504 315.558 842.266 316.446 843.036C317.31 843.788 318.509 844.168 320.01 844.168C322.555 844.168 324.423 843.473 325.565 842.096C326.737 840.685 327.331 838.816 327.331 836.539C327.331 836.539 327.331 831.025 327.331 829.427C325.875 830.255 319.628 833.809 319.628 833.809H319.466C307.295 833.809 301.124 827.297 301.124 814.454C301.124 808.027 302.685 803.4 305.765 800.699C308.822 798.017 313.575 796.656 319.894 796.656V796.656ZM319.785 823.085C320.085 822.909 327.058 818.805 327.628 818.467C327.595 814.551 327.041 811.719 325.955 810.09C324.873 808.467 322.979 807.68 320.166 807.68C315.294 807.68 312.925 809.973 312.925 814.689C312.925 817.4 313.449 819.517 314.484 820.984C315.449 822.357 317.241 823.056 319.785 823.085ZM357.196 802.539C355.964 804.307 355.123 806.199 354.695 808.158C354.272 810.081 354.059 812.413 354.059 815.091V815.704H365.47V815.091C365.47 812.582 365.919 810.628 366.807 809.286C367.639 808.023 369.22 807.384 371.505 807.384C373.809 807.384 375.402 807.921 376.235 808.978C377.102 810.082 377.541 811.198 377.541 812.293C377.541 813.435 377.119 814.861 376.285 816.527L374.77 819.025L371.669 823.406C370.294 825.315 368.406 827.474 366.057 829.823L357.714 839.099L355.364 841.766C353.976 843.594 353.28 845.497 353.28 847.44C353.28 849.844 354.194 851.591 355.997 852.635C357.691 853.62 359.757 854.117 362.136 854.117H389.264V843.794C389.264 843.794 370.954 843.794 368.604 843.794C370.02 842.154 376.518 834.621 376.518 834.621C376.541 834.59 379.627 830.967 379.627 830.967L384.235 825.423C385.557 823.73 386.826 821.474 388.009 818.716C389.203 815.928 389.808 813.19 389.808 810.582C389.808 806.253 388.234 802.871 385.131 800.529C382.08 798.228 377.717 797.061 372.166 797.061C364.677 797.061 359.642 798.905 357.196 802.539V802.539ZM424.461 797.061C431.897 797.061 437.078 799.141 439.856 803.241C442.583 807.267 443.966 814.34 443.966 824.267V827.457C443.966 831.28 443.835 834.544 443.575 837.16C443.313 839.784 442.78 842.289 441.992 844.605C441.184 846.974 440.031 848.875 438.565 850.257C437.104 851.635 435.182 852.716 432.85 853.466C430.544 854.207 427.721 854.585 424.458 854.585C421.2 854.585 418.375 854.194 416.062 853.426C413.738 852.652 411.819 851.574 410.358 850.223C408.886 848.863 407.734 846.96 406.927 844.566C406.136 842.221 405.604 839.703 405.343 837.082C405.086 834.49 404.953 831.201 404.953 827.299V824.345C404.953 816.329 405.591 810.327 406.851 806.496C407.657 804.126 408.815 802.259 410.291 800.949L410.303 800.937C413.358 798.366 418.12 797.061 424.461 797.061L424.461 797.061ZM424.536 843.716C427.846 843.716 429.963 842.837 430.833 841.1C431.771 839.222 432.273 835.442 432.325 829.866V821.239C432.273 816.23 431.72 812.687 430.685 810.712C429.7 808.838 427.664 807.928 424.458 807.928C421.254 807.928 419.219 808.827 418.236 810.674C417.196 812.629 416.646 816.078 416.596 820.923V829.86C416.646 835.287 417.172 839.028 418.163 840.98V840.981C419.083 842.797 421.226 843.716 424.536 843.716V843.716Z" fill="#989C9D"/>
<path d="M272.248 799.626C276.07 799.626 277.302 800.438 277.697 800.923C278.132 801.459 278.866 803.01 278.866 807.333C278.866 807.333 278.866 848.044 278.866 851.974C276.628 851.974 273.622 851.974 271.384 851.974C271.384 848.054 271.384 807.028 271.384 807.028C271.384 807.028 266.39 805.192 264.62 804.543C264.62 803.119 264.62 801.478 264.62 799.626C266.759 799.626 272.248 799.626 272.248 799.626V799.626Z" fill="white"/>
<path d="M319.894 798.816C325.681 798.816 329.961 799.961 332.615 802.219C335.196 804.415 336.504 808.454 336.504 814.223V836.383C336.504 841.784 335.131 845.857 332.422 848.493C329.702 851.145 325.709 852.488 320.554 852.488C315.42 852.488 311.597 851.211 309.193 848.69C307.072 846.467 305.923 843.482 305.654 839.876C307.894 839.876 310.535 839.876 312.528 839.876C312.595 840.366 312.594 840.863 312.726 841.344C313.035 842.49 313.812 843.611 315.03 844.668C316.298 845.768 317.974 846.328 320.01 846.328C323.228 846.328 325.657 845.37 327.228 843.477C328.729 841.667 329.491 839.333 329.491 836.539V825.712C329.491 825.712 320.033 831.094 319.099 831.624C308.328 831.496 303.284 826.046 303.284 814.454C303.284 808.678 304.598 804.595 307.188 802.323C309.841 799.996 314.116 798.816 319.894 798.816V798.816ZM310.765 814.689C310.765 817.852 311.422 820.389 312.718 822.228C314.101 824.194 316.47 825.207 319.761 825.245L320.362 825.251L329.8 819.695L329.788 818.449C329.751 814.017 329.085 810.891 327.753 808.892C326.26 806.655 323.707 805.521 320.167 805.521C314.104 805.521 310.765 808.776 310.765 814.689L310.765 814.689Z" fill="white"/>
<path d="M356.804 808.621C357.172 806.938 357.901 805.31 358.97 803.772L358.991 803.744C361.009 800.743 365.441 799.221 372.166 799.221C377.238 799.221 381.164 800.242 383.832 802.255C386.398 804.191 387.647 806.916 387.647 810.582C387.647 812.898 387.101 815.349 386.023 817.866C384.914 820.453 383.741 822.548 382.534 824.093L377.965 829.587C377.98 829.566 374.853 833.244 374.853 833.244C374.88 833.211 366.97 842.382 366.97 842.382L363.89 845.955C363.89 845.955 383.639 845.955 387.103 845.955C387.103 847.941 387.103 849.971 387.103 851.958C383.442 851.958 362.136 851.958 362.136 851.958C360.142 851.958 358.441 851.557 357.08 850.767C356.376 850.36 355.44 849.57 355.44 847.44C355.44 845.987 355.992 844.526 357.07 843.095C357.231 842.911 359.336 840.527 359.336 840.527L367.662 831.267C370.015 828.918 371.98 826.672 373.422 824.668L376.579 820.209L378.177 817.573L378.216 817.494C379.216 815.496 379.703 813.794 379.703 812.293C379.703 810.7 379.108 809.138 377.935 807.643C376.666 806.037 374.505 805.225 371.505 805.225C367.698 805.225 365.868 806.786 365.002 808.096C364.087 809.483 363.558 811.325 363.388 813.544C361.269 813.544 358.514 813.544 356.284 813.544C356.351 811.698 356.501 810.002 356.804 808.621L356.804 808.621Z" fill="white"/>
<path d="M424.461 799.221C431.137 799.221 435.715 800.981 438.069 804.453C440.514 808.062 441.807 814.914 441.807 824.267V827.457C441.807 831.212 441.68 834.405 441.426 836.945C441.181 839.406 440.682 841.75 439.947 843.909C439.254 845.938 438.292 847.547 437.083 848.685C435.858 849.842 434.211 850.759 432.187 851.41C430.098 852.083 427.496 852.423 424.458 852.423C421.435 852.423 418.837 852.071 416.742 851.376C414.714 850.7 413.059 849.778 411.826 848.636C410.622 847.526 409.664 845.924 408.975 843.877C408.236 841.683 407.737 839.326 407.495 836.868C407.242 834.345 407.113 831.126 407.113 827.299V824.345C407.113 816.558 407.715 810.781 408.902 807.172C409.578 805.188 410.526 803.638 411.714 802.578C414.37 800.351 418.656 799.221 424.461 799.221V799.221ZM416.328 809.66C415.108 811.954 414.491 815.632 414.436 820.901V829.86C414.49 835.725 415.078 839.677 416.236 841.958C417.553 844.558 420.346 845.877 424.536 845.877C428.732 845.877 431.5 844.595 432.764 842.066C433.867 839.862 434.43 835.877 434.484 829.885V821.239C434.428 815.786 433.81 812.022 432.596 809.708C431.224 807.095 428.486 805.768 424.458 805.768C420.436 805.768 417.702 807.078 416.328 809.66V809.66Z" fill="white"/>
<path d="M71.5368 78.6049C72.9098 78.0697 210.519 25.0222 353.546 25.0222C353.547 25.0222 353.547 25.0222 353.549 25.0222C496.578 25.0222 634.187 78.0697 635.56 78.6049C645.143 82.3438 653.682 86.5098 659.534 89.5606C664.125 110.308 675.01 163.291 681.093 224.462C682.747 241.081 683.794 261.739 683.794 285.512C683.794 382.574 666.36 531.566 601.635 669.63C546.424 787.401 479.73 858.949 433.505 898.228C396.941 929.299 367.136 945.603 353.549 952.211C339.96 945.603 310.156 929.299 273.592 898.228C227.368 858.949 160.674 787.401 105.463 669.63C40.7366 531.566 23.3037 382.574 23.3037 285.512C23.3037 261.739 24.3499 241.081 26.0029 224.462C32.0863 163.291 42.971 110.308 47.5622 89.5606C53.4137 86.5098 61.9534 82.3438 71.5368 78.6049ZM75.2646 88.1635C68.1514 90.9395 61.624 93.976 56.5511 96.4987C51.6559 119.213 41.8421 168.876 36.2126 225.477C34.4801 242.895 33.5641 263.654 33.5641 285.512C33.5641 347.626 41.4756 508.971 114.752 665.276C169.183 781.379 234.786 851.789 280.236 890.41C312.103 917.49 338.482 932.995 353.548 940.732C368.614 932.995 394.994 917.49 426.862 890.41C472.311 851.789 537.914 781.379 592.346 665.276C665.622 508.971 673.533 347.626 673.533 285.512C673.533 263.654 672.617 242.895 670.885 225.477C665.255 168.876 655.441 119.213 650.547 96.4987C645.474 93.9753 638.946 90.9395 631.836 88.1648C630.476 87.6361 494.213 35.282 353.546 35.2826C212.914 35.2826 76.6865 87.6114 75.2646 88.1635V88.1635Z" fill="#989C9D"/>
<path d="M353.546 27.1823C496.039 27.1823 633.406 80.0834 634.776 80.6172C643.927 84.1876 652.109 88.1583 657.642 91.0144C662.204 111.745 672.937 164.275 678.945 224.675C680.703 242.355 681.632 263.392 681.632 285.512C681.632 348.168 673.647 510.934 599.679 668.715C544.63 786.135 478.169 857.441 432.106 896.582C396.89 926.509 368.114 942.634 353.548 949.801C338.982 942.634 310.207 926.509 274.991 896.582C228.929 857.441 162.466 786.135 107.418 668.715C33.4495 510.934 25.4639 348.168 25.4639 285.512C25.4639 263.392 26.3936 242.355 28.1527 224.675C34.1592 164.275 44.8929 111.745 49.4554 91.0144C54.9873 88.1583 63.1709 84.1876 72.3213 80.6172C73.6989 80.0808 211.061 27.1823 353.546 27.1823V27.1823ZM74.4827 86.1498C68.3988 88.5248 62.0433 91.3549 55.5889 94.5652L54.6585 95.0274L54.4398 96.0437C49.2204 120.262 39.6338 169.253 34.0628 225.264C32.3239 242.753 31.404 263.587 31.404 285.512C31.404 347.77 39.3349 509.494 112.796 666.193C167.391 782.647 233.224 853.296 278.838 892.056C310.143 918.658 336.209 934.255 352.562 942.654L353.548 943.16L354.535 942.654C370.888 934.255 396.954 918.658 428.259 892.056C473.872 853.296 539.705 782.647 594.302 666.193C667.763 509.494 675.692 347.77 675.692 285.512C675.692 263.587 674.773 242.753 673.033 225.263C667.463 169.253 657.877 120.262 652.657 96.0437L652.438 95.028L651.507 94.5652C645.06 91.3568 638.705 88.5274 632.622 86.153C631.255 85.6211 494.631 33.1218 353.546 33.1225C212.607 33.1225 75.848 85.6198 74.4827 86.1498V86.1498Z" fill="white"/>
<path d="M367.031 653.966L367.032 758.883H340.032V653.966L340.42 653.943H366.643L367.031 653.966ZM367.031 608.089V488.458L367.048 488.163H449.112L455.592 461.163H367.297H367.031V403.947L367.048 403.658C358.203 403.278 349.117 403.142 340.026 403.359L340.032 403.609V461.165L339.711 461.163H326.351V488.163H332.112C338.232 488.163 339.941 489.694 340.032 495.633V608.583H340.34H367.047L367.03 608.089H367.031ZM292.152 617.449V584.711L292.155 584.184C286.465 583.178 280.878 581.982 275.442 580.568C271.92 579.652 268.491 578.663 265.153 577.6L265.152 577.961V608.405C265.152 615.828 262.183 617.807 256.782 617.762H252.191V644.762H505.991L496.273 617.762H292.156L292.152 617.449H292.152ZM340.026 359.68C349.16 359.485 358.227 359.6 367.049 359.938L367.03 359.667V268.923H473.952L481.151 241.923H326.712V268.923H332.741C338.592 268.923 340.032 271.891 340.032 276.663V359.441L340.026 359.68H340.026ZM376.431 330.483H499.872L505.992 303.483H376.52L376.213 303.484V330.483H376.431V330.483ZM376.478 578.685C399.657 577.344 420.26 574.612 434.353 572.404C482.592 564.844 515.713 556.022 515.713 556.022L506.299 532.233C497.397 534.461 468.682 541.333 430.423 547.328C416.496 549.512 397.474 551.984 376.543 553.272L376.213 553.301V578.681L376.478 578.685V578.685ZM292.147 330.483H330.509L330.852 330.484V303.484L330.621 303.483H252.192V330.483H256.446C262.115 330.506 265.153 335.77 265.153 339.753V530.891L265.448 531.048C271.727 533.831 278.728 536.228 286.448 538.236C288.331 538.725 290.24 539.184 292.171 539.612L292.153 539.216V330.798L292.147 330.483H292.147ZM330.833 553.717C314.674 552.909 298.69 550.904 284.138 547.121C252.896 538.997 215.653 519.738 215.653 474.122V474.124C215.653 442.079 234.033 423.041 255.8 411.734L255.972 411.663V383.718L255.667 383.835C210.525 402.265 190.272 435.635 190.272 474.122V474.124V474.122V474.124C190.272 518.404 217.079 555.909 277.752 571.684C294.484 576.034 312.693 578.257 330.845 579.099L330.852 578.704V553.999L330.833 553.718L330.833 553.717ZM301.332 371.907V397.556L301.592 397.501C346.965 390.184 400.474 396.223 430.423 400.917C468.682 406.913 497.397 413.786 506.299 416.014L515.713 392.224C515.713 392.224 482.592 383.404 434.353 375.843C405.854 371.377 350.72 364.768 301.528 371.852L301.332 371.907Z" fill="#989C9D"/>
<path d="M290.032 619.922C315.356 619.922 491.976 619.922 494.754 619.922C495.573 622.195 501.358 638.264 502.919 642.603C496.971 642.603 258.547 642.603 254.352 642.603C254.352 639.264 254.352 623.261 254.352 619.922C255.563 619.922 256.783 619.922 256.783 619.922C258.989 619.94 262.21 619.703 264.499 617.433C266.418 615.528 267.312 612.66 267.312 608.405V581.031L267.314 580.531C269.799 581.281 272.335 581.992 274.898 582.659C279.686 583.903 284.737 585.017 289.971 585.983L289.992 586.534V619.506L290.031 619.922H290.032Z" fill="white"/>
<path d="M342.192 357.146V276.663C342.192 274.214 342.192 266.764 332.742 266.762C332.742 266.762 330.652 266.762 328.873 266.762C328.873 263.424 328.873 247.421 328.873 244.083C332.995 244.083 472.999 244.083 478.341 244.083C477.247 248.188 472.969 264.229 472.292 266.762C469.076 266.762 364.872 266.762 364.872 266.762V357.371L364.867 357.699C357.096 357.436 349.504 357.363 342.186 357.479L342.191 357.146H342.192Z" fill="white"/>
<path d="M364.518 656.103H342.581L342.192 656.159C342.192 709.014 342.192 754.948 342.192 756.723C345.531 756.723 361.535 756.723 364.872 756.723C364.872 754.995 364.872 709.517 364.872 656.125L364.518 656.103V656.103Z" fill="white"/>
<path d="M364.872 606.05C364.872 550.699 364.872 498.424 364.872 485.995L365.135 486.003C375.945 486.003 444.397 486.003 447.409 486.003C448.036 483.392 451.885 467.357 452.853 463.323C448.113 463.323 376.725 463.323 365.184 463.323L364.872 463.301V405.858L364.866 405.731C357.039 405.431 349.458 405.346 342.209 405.475L342.192 405.611V463.301L341.964 463.323C335.486 463.323 329.76 463.323 328.512 463.323C328.512 466.661 328.512 482.665 328.512 486.003C330.2 486.003 332.112 486.003 332.112 486.003C339.447 486.003 342.085 488.514 342.192 495.633C342.192 495.633 342.192 548.354 342.192 606.418L342.456 606.422H364.888L364.872 606.051L364.872 606.05Z" fill="white"/>
<path d="M378.372 328.323V305.621L378.612 305.642C400.664 305.642 498.685 305.642 503.289 305.642C502.381 309.641 498.747 325.672 498.147 328.322C495.235 328.322 403.118 328.322 378.75 328.322L378.372 328.323V328.323Z" fill="white"/>
<path d="M289.993 328.751V536.651L290.009 536.897C288.989 536.653 287.984 536.403 286.993 536.144C279.93 534.308 273.422 532.12 267.562 529.611L267.312 529.518V339.753C267.312 334.277 263.161 328.35 256.455 328.322C256.455 328.322 255.403 328.322 254.352 328.322C254.352 324.984 254.352 308.981 254.352 305.643C257.764 305.643 310.761 305.643 328.366 305.643L328.692 305.644V328.346L328.394 328.321H289.987L289.992 328.75L289.993 328.751Z" fill="white"/>
<path d="M378.372 576.116V555.349L378.636 555.301C398.877 553.982 417.215 551.586 430.757 549.464C466.958 543.789 494.922 537.255 504.985 534.784C506.054 537.484 511.448 551.117 512.803 554.539C504.536 556.629 474.502 563.924 434.018 570.268C419.64 572.522 400.063 575.061 378.388 576.398L378.372 576.116L378.372 576.116Z" fill="white"/>
<path d="M328.692 556.157V576.544L328.707 576.823C311.375 575.911 294.136 573.711 278.296 569.592C222.926 555.196 192.433 521.292 192.433 474.124V474.122C192.433 434.5 213.95 404.237 253.655 387.035L253.812 386.98V410.335L253.597 410.439C231.751 422.112 213.493 441.6 213.493 474.124C213.493 521.12 251.615 540.896 283.595 549.211C297.688 552.875 313.098 554.885 328.709 555.765L328.692 556.157H328.692Z" fill="white"/>
<path d="M303.493 373.774V395.014L303.688 394.99C348.831 388.221 401.211 394.152 430.758 398.783C466.958 404.456 494.922 410.99 504.986 413.463C506.055 410.762 511.448 397.129 512.803 393.708C504.536 391.618 474.502 384.322 434.018 377.977C403.907 373.258 351.008 367.288 303.753 373.725L303.493 373.774V373.774Z" fill="white"/>
<path d="M124.967 112.975C107.897 116.512 90.6626 120.499 73.742 124.827L72.1177 125.243V186.341C72.1177 195.142 74.1659 200.734 78.3781 203.438C82.3859 206.016 88.9276 206.198 98.3774 203.992C107.465 201.874 116.707 199.838 125.843 197.946L127.564 197.59V179.116L124.967 179.655C116.185 181.474 107.277 183.43 98.4875 185.47C94.2362 186.458 92.925 185.906 92.6235 185.713C92.3703 185.551 91.5519 184.771 91.5513 181.452C91.5513 181.452 91.5513 174.41 91.5513 171.944C98.9705 170.165 106.489 168.425 113.95 166.797L115.52 166.454L116.955 147.661L114.122 148.276C106.606 149.91 99.0382 151.664 91.5513 153.452C91.5513 149.892 91.5513 141.33 91.5513 138.94C102.898 136.22 114.419 133.633 125.843 131.267L127.564 130.91V112.437L124.967 112.975V112.975ZM211.87 98.4693L195.532 100.659L195.059 101.761C195.059 101.761 177.931 140.596 174.86 147.56C171.456 140.957 154.109 107.319 154.109 107.319L152.543 107.617L135.731 110.786L135.745 112.574V195.919L155.292 192.238L155.307 190.444C155.307 190.444 155.307 163.031 155.307 151.177C159.469 159.276 165.504 171.019 165.504 171.019C168.642 177.083 172.623 177.82 175.411 177.371C179.189 176.764 182.305 173.888 184.672 168.825C184.689 168.786 190.49 155.332 194.651 145.68C194.651 158.508 194.651 185.878 194.651 185.878L214.287 183.245L214.302 181.353V98.1432L211.87 98.4693H211.87ZM257.684 93.595C247.525 94.4661 237.239 95.4908 227.11 96.6379L225.193 96.8554V181.926L244.86 179.835L244.875 177.891C244.875 177.891 244.875 157.366 244.875 154.005C247.83 153.732 258.054 152.785 258.054 152.785C266.869 152.03 273.807 148.952 278.671 143.636C283.568 138.288 286.051 130.76 286.051 121.264V121.262C286.051 111.684 283.534 104.422 278.571 99.6783L278.569 99.6777C273.552 94.8847 266.525 92.8391 257.684 93.5956L257.684 93.595ZM257.281 112.028C260.163 111.78 262.263 112.301 263.702 113.622C265.45 115.226 266.336 118.156 266.336 122.329V122.331C266.336 126.521 265.533 129.549 263.949 131.329C262.367 133.105 260.064 134.101 256.909 134.373C256.909 134.373 248.963 135.112 244.875 135.492C244.875 131.876 244.875 116.234 244.875 113.181C247.783 112.911 257.281 112.028 257.281 112.028V112.028ZM322.118 89.2512C310.714 89.5754 302.179 93.2545 296.75 100.185C291.481 106.915 288.81 116.92 288.81 129.922V135.818C288.81 150.222 291.386 160.303 296.684 166.639C301.964 172.965 310.582 176.004 322.295 175.671C333.973 175.346 342.597 171.846 347.926 165.266C353.291 158.652 355.898 148.554 355.897 134.396V128.273C355.897 115.329 353.155 105.451 347.746 98.914C342.172 92.1829 333.55 88.9316 322.118 89.2512ZM315.884 156.191C314.185 155.397 312.914 154.439 312.106 153.346C310.447 151.288 308.537 146.519 308.537 135.06V130.865C308.537 123.696 309.341 118.098 310.926 114.228C312.669 109.955 316.423 107.797 322.405 107.628C328.261 107.465 331.944 109.383 333.662 113.492C335.316 117.485 336.157 123.031 336.156 129.968V134.164C336.157 139.684 335.66 144.266 334.683 147.783C334.15 149.893 333.418 151.553 332.494 152.766C331.589 153.954 330.269 154.999 328.568 155.873C326.878 156.741 324.745 157.217 322.228 157.288C319.726 157.359 317.591 156.99 315.884 156.191ZM363.127 91.6978V149.987C363.127 158.515 365.363 164.859 369.774 168.844C374.108 172.768 380.854 174.827 390.393 175.137C398.191 175.393 406.083 175.733 413.853 176.15L416.127 176.273V157.885L414.083 157.776C406.274 157.356 398.351 157.014 390.535 156.758C386.372 156.623 384.808 155.764 384.247 155.266C383.342 154.463 382.864 152.729 382.864 150.251V89.8378L363.113 89.5006L363.127 91.6979L363.127 91.6978ZM422.445 93.8743V176.628L442.143 178.01L442.158 175.695V92.9394L422.431 91.5566L422.445 93.8743H422.445ZM480.882 101.125C477.817 103.784 476.328 108.331 476.329 115.027V181.244L495.98 183.575L495.997 181.145C495.997 181.145 495.997 155.049 495.997 150.835C504.358 151.904 512.813 153.07 521.182 154.331L523.475 154.678L524.916 136.468L522.93 136.165C514.013 134.811 504.964 133.559 495.997 132.417C495.997 129.8 495.997 123.085 495.997 123.085C495.997 119.795 496.742 118.654 497.186 118.266C497.546 117.951 498.768 117.269 502.264 117.735C511.436 118.96 520.72 120.318 529.861 121.77L532.36 122.167V103.731L530.539 103.443C519.015 101.611 507.279 99.9336 495.652 98.4564C488.886 97.5983 483.919 98.494 480.882 101.125V101.125ZM527.506 169.196C525.781 170.648 524.979 173.445 524.979 177.999C524.977 182.345 525.72 185.339 527.246 187.15C528.768 188.96 531.569 190.178 535.807 190.874C540.257 191.606 543.114 191.247 544.796 189.746C546.45 188.269 547.221 185.471 547.221 180.943C547.221 176.603 546.499 173.627 545.018 171.843V171.842C543.514 170.036 540.73 168.82 536.507 168.126C532.095 167.402 529.235 167.742 527.506 169.196V169.196ZM566.798 112.327C555.592 115.473 549.897 127.305 549.897 147.489V154.294C549.891 179.37 560.539 194.271 581.539 198.584C591.273 200.599 598.96 199.175 604.385 194.352C609.785 189.551 612.523 181.607 612.523 170.742V169.018L594.364 164.894L594.141 167.337C593.601 172.89 592.48 176.799 590.813 178.953C589.453 180.712 586.645 181.165 582.466 180.3C577.921 179.36 574.697 177.365 572.611 174.2C570.526 170.958 569.463 165.132 569.463 156.904V149.873C569.463 146.827 569.533 144.421 569.674 142.722C570.007 136.316 571.239 133.658 572.213 132.545C574.174 130.305 577.223 129.65 581.536 130.542C585.348 131.332 588.152 132.887 589.868 135.163C591.688 137.581 592.985 140.975 593.725 145.252L593.97 146.671L612.182 150.801L612.196 148.1C612.195 138.66 609.391 130.689 603.859 124.411C598.333 118.143 591.118 114.051 582.412 112.249C576.419 111.008 571.164 111.035 566.798 112.327H566.798ZM616.046 186.721C614.285 188.077 613.463 190.848 613.463 195.443C613.463 199.758 614.182 202.778 615.661 204.673C617.135 206.562 619.872 207.98 624.029 209.007C628.524 210.119 631.303 209.978 633.039 208.549C634.725 207.165 635.512 204.393 635.512 199.827C635.512 195.518 634.813 192.516 633.377 190.652C631.927 188.768 629.208 187.354 625.065 186.329C620.673 185.243 617.807 185.368 616.046 186.721V186.721Z" fill="#989C9D"/>
<path d="M65.6385 249.889V241.113L65.6464 240.824C129.696 222.634 240.1 197.001 353.549 197.283C467.005 197.001 577.417 222.638 641.464 240.828L641.458 241.292V249.798L641.445 250.343C576.33 231.64 466.75 206.181 353.526 206.463C240.352 206.181 130.788 231.634 65.6733 250.336L65.6382 249.889H65.6385Z" fill="#989C9D"/>
<path d="M67.835 247.473C133.385 228.815 241.685 204.025 353.521 204.303C465.42 204.025 573.755 228.826 639.303 247.484L639.298 242.824L639.294 242.43C573.328 223.736 465.22 199.165 353.543 199.443C241.898 199.165 133.814 223.726 67.8428 242.419L67.835 247.473H67.835Z" fill="white"/>
<path d="M125.404 195.831C116.215 197.734 107.042 199.754 97.8859 201.889C89.1671 203.923 83.0591 203.881 79.5447 201.62C76.0324 199.366 74.2778 194.281 74.2778 186.341C74.2778 166.534 74.2778 146.727 74.2778 126.92C91.2557 122.577 108.304 118.633 125.404 115.091C125.404 119.777 125.404 124.464 125.404 129.151C113.372 131.645 101.366 134.335 89.3911 137.225C89.3911 143.538 89.3911 149.85 89.3911 156.163C97.7726 154.14 106.17 152.215 114.581 150.387C114.217 155.153 113.853 159.919 113.489 164.686C105.443 166.443 97.41 168.288 89.3911 170.224C89.3911 173.966 89.3911 177.71 89.3911 181.453C89.3924 184.628 90.0792 186.652 91.4595 187.533C92.8377 188.414 95.3416 188.418 98.9757 187.574C107.769 185.533 116.58 183.598 125.404 181.769C125.404 186.457 125.404 191.144 125.404 195.831V195.831ZM196.812 135.214C192.11 146.083 187.411 156.982 182.715 167.911C180.658 172.311 178.109 174.75 175.067 175.239C172.023 175.729 169.477 173.997 167.426 170.033C162.663 160.741 157.903 151.479 153.147 142.249C153.146 158.314 153.146 174.379 153.147 190.444C148.063 191.365 142.982 192.323 137.905 193.314C137.905 166.401 137.905 139.487 137.905 112.574C142.909 111.596 147.916 110.652 152.929 109.743C160.282 123.944 167.642 138.219 175.012 152.568C182.346 135.85 189.686 119.207 197.034 102.637C202.067 101.928 207.103 101.253 212.142 100.612C212.142 127.526 212.142 154.439 212.142 181.353C207.029 182.003 201.918 182.688 196.812 183.409C196.812 167.344 196.812 151.279 196.812 135.214V135.214ZM277.078 101.239C281.619 105.579 283.891 112.267 283.891 121.262C283.891 130.26 281.619 137.218 277.078 142.178C272.537 147.139 266.133 149.925 257.869 150.633C252.816 151.066 247.765 151.534 242.715 152.036C242.715 160.655 242.715 169.273 242.715 177.891C237.593 178.4 232.471 178.945 227.353 179.525C227.353 152.611 227.353 125.697 227.353 98.7838C237.516 97.6328 247.689 96.6204 257.869 95.7474C266.133 95.0397 272.537 96.9023 277.078 101.239V101.239ZM268.497 122.33C268.497 113.413 264.694 109.222 257.096 109.875C252.3 110.289 247.507 110.734 242.715 111.212C242.715 120.095 242.715 128.978 242.715 137.861C247.507 137.385 252.3 136.94 257.096 136.525C260.782 136.206 263.606 134.961 265.563 132.764C267.517 130.569 268.497 127.092 268.497 122.33ZM353.737 128.272C353.737 130.314 353.737 132.355 353.737 134.396C353.738 147.932 351.24 157.751 346.248 163.906C341.256 170.068 333.25 173.204 322.234 173.512C311.217 173.825 303.254 171.138 298.34 165.253C293.425 159.374 290.971 149.578 290.97 135.817C290.97 133.852 290.97 131.887 290.97 129.921C290.97 117.373 293.463 107.888 298.451 101.517C303.438 95.1484 311.346 91.7174 322.179 91.4101C333.01 91.1067 340.98 94.1289 346.083 100.29C351.185 106.457 353.737 115.802 353.737 128.272ZM338.316 134.163C338.316 132.764 338.316 131.366 338.316 129.967C338.316 122.712 337.428 116.939 335.655 112.658C333.584 107.704 329.148 105.279 322.344 105.468C315.468 105.663 310.995 108.34 308.927 113.409C307.227 117.561 306.377 123.38 306.377 130.864C306.377 132.262 306.377 133.661 306.377 135.06C306.377 144.814 307.706 151.332 310.369 154.629C311.402 156.027 312.935 157.197 314.969 158.147C317.002 159.098 319.442 159.527 322.29 159.447C325.135 159.366 327.558 158.82 329.555 157.794C331.551 156.768 333.103 155.531 334.213 154.075C335.321 152.619 336.171 150.714 336.763 148.361C337.798 144.641 338.316 139.908 338.316 134.163V134.163ZM413.969 173.993C406.135 173.572 398.301 173.234 390.463 172.978C381.591 172.69 375.177 170.822 371.221 167.241C367.265 163.666 365.286 157.925 365.286 149.986C365.286 130.557 365.286 111.126 365.286 91.6972C370.427 91.75 375.568 91.8379 380.706 91.9609C380.706 111.391 380.706 130.82 380.706 150.25C380.706 153.425 381.406 155.631 382.812 156.879C384.215 158.127 386.767 158.796 390.463 158.917C398.299 159.173 406.137 159.511 413.969 159.932C413.969 164.618 413.969 169.305 413.969 173.993V173.993ZM440 175.694C434.87 175.298 429.738 174.939 424.604 174.614C424.604 147.701 424.604 120.787 424.604 93.8737C429.737 94.198 434.87 94.558 440 94.9532C440 121.866 440 148.78 440 175.694ZM530.2 119.636C520.996 118.173 511.778 116.826 502.549 115.594C499.315 115.163 497.055 115.516 495.768 116.637C494.479 117.76 493.836 119.91 493.836 123.084C493.836 126.826 493.836 130.568 493.836 134.31C503.436 135.516 513.028 136.846 522.607 138.301C522.239 142.932 521.872 147.564 521.505 152.195C512.293 150.806 503.069 149.531 493.836 148.371C493.836 159.296 493.836 170.22 493.836 181.145C488.724 180.503 483.608 179.895 478.489 179.324C478.489 157.891 478.489 136.458 478.489 115.026C478.488 109.055 479.758 104.96 482.298 102.757C484.837 100.557 489.202 99.8151 495.38 100.599C507.004 102.076 518.612 103.733 530.2 105.575C530.202 110.262 530.2 114.949 530.2 119.636V119.636ZM543.358 173.223C544.493 174.591 545.061 177.163 545.061 180.943C545.061 184.724 544.493 187.12 543.358 188.134C542.221 189.149 539.823 189.345 536.157 188.742C532.492 188.139 530.07 187.152 528.897 185.759C527.724 184.365 527.137 181.779 527.138 177.999C527.138 174.219 527.724 171.836 528.897 170.848C530.07 169.861 532.492 169.655 536.157 170.257C539.823 170.859 542.22 171.857 543.358 173.223V173.223ZM596.291 167.546C600.985 168.581 605.677 169.646 610.363 170.742C610.363 181.026 607.893 188.342 602.949 192.737C598.002 197.136 591.017 198.339 581.975 196.467C562.058 192.378 552.053 178.592 552.057 154.293C552.057 152.025 552.057 149.757 552.057 147.488C552.056 128.371 557.182 117.27 567.413 114.398C571.427 113.209 576.285 113.186 581.975 114.364C590.286 116.084 597.036 119.938 602.239 125.837C607.439 131.74 610.036 139.181 610.036 148.099C605.314 146.995 600.586 145.925 595.853 144.883C595.053 140.248 593.633 136.572 591.592 133.863C589.553 131.155 586.347 129.332 581.975 128.427C576.867 127.371 573.071 128.284 570.59 131.121C568.836 133.122 567.812 136.93 567.519 142.544C567.373 144.329 567.303 146.773 567.303 149.872C567.303 152.216 567.303 154.559 567.303 156.903C567.303 165.598 568.471 171.755 570.808 175.389C573.215 179.039 576.959 181.366 582.028 182.415C587.097 183.464 590.594 182.767 592.523 180.275C594.452 177.782 595.708 173.543 596.291 167.546V167.546ZM631.666 191.969C632.791 193.428 633.353 196.047 633.353 199.826C633.353 203.607 632.791 205.958 631.666 206.881C630.544 207.805 628.172 207.807 624.547 206.91C620.92 206.014 618.525 204.833 617.364 203.344C616.203 201.856 615.625 199.223 615.625 195.442C615.625 191.662 616.203 189.326 617.364 188.432C618.525 187.539 620.92 187.529 624.547 188.426C628.172 189.323 630.544 190.512 631.666 191.97V191.969Z" fill="white"/>
<defs>
<radialGradient id="paint0_radial" cx="0" cy="0" r="1" gradientUnits="userSpaceOnUse" gradientTransform="translate(202.121 355.943) scale(868.611)">
<stop stop-color="#5087CE"/>
<stop offset="0.130631" stop-color="#5087CE"/>
<stop offset="0.51685" stop-color="#1D4C90"/>
<stop offset="0.565549" stop-color="#1D4C90"/>
<stop offset="0.76965" stop-color="#07121F"/>
<stop offset="1" stop-color="#07121F"/>
</radialGradient>
</defs>
</svg>
