<?xml version="1.0" encoding="UTF-8" standalone="no"?>
<svg
   xmlns:dc="http://purl.org/dc/elements/1.1/"
   xmlns:cc="http://creativecommons.org/ns#"
   xmlns:rdf="http://www.w3.org/1999/02/22-rdf-syntax-ns#"
   xmlns:svg="http://www.w3.org/2000/svg"
   xmlns="http://www.w3.org/2000/svg"
   xmlns:sodipodi="http://sodipodi.sourceforge.net/DTD/sodipodi-0.dtd"
   xmlns:inkscape="http://www.inkscape.org/namespaces/inkscape"
   viewBox="0 0 700.00003 700.00002"
   version="1.1"
   id="svg59"
   sodipodi:docname="olympiacos-logo.svg"
   width="700"
   height="700"
   inkscape:version="0.92.1 r15371">
  <metadata
     id="metadata65">
    <rdf:RDF>
      <cc:Work
         rdf:about="">
        <dc:format>image/svg+xml</dc:format>
        <dc:type
           rdf:resource="http://purl.org/dc/dcmitype/StillImage" />
        <dc:title></dc:title>
      </cc:Work>
    </rdf:RDF>
  </metadata>
  <defs
     id="defs63" />
  <sodipodi:namedview
     pagecolor="#ffffff"
     bordercolor="#666666"
     borderopacity="1"
     objecttolerance="10"
     gridtolerance="10"
     guidetolerance="10"
     inkscape:pageopacity="0"
     inkscape:pageshadow="2"
     inkscape:window-width="1600"
     inkscape:window-height="838"
     id="namedview61"
     showgrid="false"
     inkscape:zoom="0.51697052"
     inkscape:cx="376.5901"
     inkscape:cy="248.03152"
     inkscape:window-x="-8"
     inkscape:window-y="-8"
     inkscape:window-maximized="1"
     inkscape:current-layer="svg59" />
  <g
     id="olympiackos-official_logo"
     data-name="olympiackos-official logo"
     transform="matrix(5.9585628,0,0,5.9585628,81.954052,-31.461232)">
    <g
       id="Layer_1"
       data-name="Layer 1">
      <path
         style="fill:#ffffff;fill-rule:evenodd"
         inkscape:connector-curvature="0"
         id="Path_62"
         data-name="Path 62"
         d="M 89.97,100.522 A 44.985,44.985 0 1 1 44.986,55.54 44.986,44.986 0 0 1 89.97,100.522"
         transform="translate(0,-36.506)" />
      <path
         style="fill:#dc0d15;fill-rule:evenodd"
         inkscape:connector-curvature="0"
         id="Path_63"
         data-name="Path 63"
         d="m 21.512,77.043 a 41.811,41.811 0 1 0 59.13,0 41.81,41.81 0 0 0 -59.13,0 m 0.343,58.79 a 41.327,41.327 0 1 1 58.446,0 41.325,41.325 0 0 1 -58.446,0"
         transform="translate(-6.09,-42.589)" />
      <path
         style="fill:#dc0d15;fill-rule:evenodd"
         inkscape:connector-curvature="0"
         id="Path_64"
         data-name="Path 64"
         d="M 53.609,68.67 A 40.485,40.485 0 1 0 94.09,109.153 40.486,40.486 0 0 0 53.609,68.67 m 0,72.313 a 31.821,31.821 0 1 1 31.814,-31.82 31.823,31.823 0 0 1 -31.814,31.82"
         transform="translate(-8.624,-45.136)" />
      <path
         style="fill:#dc0d15;fill-rule:evenodd"
         inkscape:connector-curvature="0"
         id="Path_65"
         data-name="Path 65"
         d="M 40.83,127.358 A 30.988,30.988 0 1 0 71.82,96.37 30.988,30.988 0 0 0 40.83,127.358 m 0.483,0 a 30.5,30.5 0 1 1 30.5,30.5 30.5,30.5 0 0 1 -30.5,-30.5"
         transform="translate(-26.837,-63.342)" />
      <path
         style="fill:#dc0d15;fill-rule:evenodd"
         inkscape:connector-curvature="0"
         id="Path_66"
         data-name="Path 66"
         d="m 158.82,223.223 c -0.47,-0.045 -0.487,-0.141 -0.487,-0.744 v -1.786 c 0,-0.6 0.024,-0.651 0.535,-0.74 l 0.147,-0.031 c 0.058,-0.038 0.051,-0.189 -0.031,-0.2 -0.209,0 -0.589,0.021 -0.977,0.021 -0.388,0 -0.809,0 -0.984,-0.021 -0.075,0 -0.079,0.164 -0.021,0.2 l 0.147,0.031 c 0.507,0.089 0.535,0.141 0.535,0.74 v 1.786 c 0,0.6 -0.021,0.685 -0.535,0.744 l -0.24,0.027 a 0.137,0.137 0 0 0 0.034,0.212 c 0.161,-0.027 0.685,-0.027 1.062,-0.027 0.377,0 0.86,0 1.066,0.027 a 0.134,0.134 0 0 0 0.027,-0.212 l -0.281,-0.027"
         transform="translate(-103.111,-144.418)" />
      <path
         style="fill:#dc0d15;fill-rule:evenodd"
         inkscape:connector-curvature="0"
         id="Path_67"
         data-name="Path 67"
         d="m 166.652,219.4 a 1.683,1.683 0 0 0 -1.714,1.7 1.206,1.206 0 0 0 1.152,1.292 1.313,1.313 0 0 0 0.85,-0.3 c 0,-0.069 0,-0.137 -0.055,-0.158 a 0.987,0.987 0 0 1 -0.422,0.072 c -0.583,0 -0.9,-0.72 -0.9,-1.261 a 0.936,0.936 0 0 1 0.888,-1.056 c 0.85,0 1.028,0.915 1.028,1.494 a 3.664,3.664 0 0 1 -1.391,2.906 4.34,4.34 0 0 1 -1.23,0.651 c -0.058,0.051 0,0.158 0.045,0.188 a 4.157,4.157 0 0 0 2.025,-0.99 3.712,3.712 0 0 0 1.289,-2.721 c 0,-1.066 -0.507,-1.827 -1.559,-1.827"
         transform="translate(-108.339,-144.201)" />
      <path
         style="fill:#dc0d15;fill-rule:evenodd"
         inkscape:connector-curvature="0"
         id="Path_68"
         data-name="Path 68"
         d="m 180.562,222.279 c -0.206,0.422 -0.4,0.432 -0.874,0.432 h -1.028 c -0.147,0 -0.171,-0.051 -0.165,-0.123 l 0.685,-0.744 c 0.524,-0.572 0.788,-0.9 0.788,-1.426 a 1.028,1.028 0 0 0 -1.134,-1.028 1.648,1.648 0 0 0 -1.395,0.984 0.134,0.134 0 0 0 0.175,0.123 1.059,1.059 0 0 1 0.891,-0.6 0.74,0.74 0 0 1 0.771,0.843 2.536,2.536 0 0 1 -0.9,1.542 7.382,7.382 0 0 1 -0.877,0.8 0.117,0.117 0 0 0 0.051,0.151 6.428,6.428 0 0 1 0.778,-0.027 h 0.86 c 0.5,0 0.867,0 1.193,0.027 0.106,-0.25 0.254,-0.562 0.408,-0.894 a 0.147,0.147 0 0 0 -0.209,-0.072"
         transform="translate(-116.628,-144.201)" />
      <path
         style="fill:#dc0d15;fill-rule:evenodd"
         inkscape:connector-curvature="0"
         id="Path_69"
         data-name="Path 69"
         d="m 190.819,219.341 a 1,1 0 0 1 -0.476,0.13 l -0.6,0.082 c -0.281,0.045 -0.456,0.069 -0.569,0.1 a 1.21,1.21 0 0 0 -0.384,0.572 2.162,2.162 0 0 0 -0.2,0.685 c 0,0.308 0.319,0.48 0.685,0.751 a 1.522,1.522 0 0 1 0.716,1.213 2.052,2.052 0 0 1 -1.395,1.758 0.151,0.151 0 0 0 0.065,0.24 c 0.641,-0.189 1.933,-0.987 1.933,-2.2 a 1.911,1.911 0 0 0 -0.97,-1.577 c -0.113,-0.082 -0.271,-0.185 -0.415,-0.281 -0.236,-0.161 -0.291,-0.264 -0.236,-0.422 0.055,-0.158 0.082,-0.206 0.343,-0.24 l 1.11,-0.165 c 0.274,-0.031 0.439,-0.367 0.5,-0.555 a 0.1,0.1 0 0 0 -0.1,-0.113"
         transform="translate(-123.941,-144.155)" />
      <path
         style="fill:#dc0d15;fill-rule:evenodd"
         inkscape:connector-curvature="0"
         id="Path_70"
         data-name="Path 70"
         d="m 62.187,150.126 a 52.64,52.64 0 0 1 0.216,-6 c 0.075,-0.559 0.106,-1.134 0.178,-1.624 a 1.9,1.9 0 0 1 0.2,-0.771 45.108,45.108 0 0 1 4.634,0.685 17.839,17.839 0 0 1 2.4,-1.738 c 0.562,-0.4 1.265,-0.884 1.738,-1.258 a 0.267,0.267 0 0 0 0.1,-0.192 2.488,2.488 0 0 0 -0.192,-0.864 12.45,12.45 0 0 0 -2.512,0.768 c -1.3,0.446 -2.642,0.713 -3.862,1.066 -0.912,0.26 -2,0.637 -2.8,0.768 a 2.387,2.387 0 0 1 -1.734,-1.251 c -0.37,-0.843 0.925,-4.047 0.685,-5.4 1.251,-1.258 1.851,-2.084 2.4,-2.317 a 8.64,8.64 0 0 0 -1.371,4.589 22.326,22.326 0 0 0 4.829,-0.85 8.485,8.485 0 0 0 4.263,-3.163 c 0.6,3.29 1.775,4.356 2.632,6.981 1.813,0.075 3.15,-5.052 3.184,-5.052 0.764,3 1.8,3.6 2.2,5.5 0.72,-0.106 1.371,-1.662 1.81,-1.748 a 5.355,5.355 0 0 0 0.219,0.771 9.809,9.809 0 0 0 5.442,-2.683 c -1.371,3.331 1.662,7.7 1.991,8.006 1.176,-0.5 2.635,-2.632 2.9,-2.9 a 7.4,7.4 0 0 0 2.4,3.18 c 0.518,0.363 0.96,0.593 1.5,0.932 0.545,-0.49 0.939,-2.193 1.224,-2.519 1.354,1.487 4.195,3.084 6.237,2.344 0,0 -0.343,-4.959 -3.571,-6.854 0.456,0.055 1.121,0.233 1.556,0.322 0.727,0.137 4.113,-0.439 5.312,-1.834 -0.963,-1.463 -2.869,-3.489 -7.07,-3.736 1.028,-0.343 3.427,-3.307 3.623,-4.925 -0.949,-0.867 -2.533,-1 -3.694,-1.244 a 4.9,4.9 0 0 0 -1.947,-4.349 c -0.093,-0.254 -0.247,-3.91 -4.932,-5.079 a 9.78,9.78 0 0 0 -4.061,-3.965 10.645,10.645 0 0 0 -8.383,-0.291 c -6.666,-1.028 -8.27,2.056 -8.715,2.519 a 7.053,7.053 0 0 0 -5.021,2.348 c -0.631,-0.062 -3.311,-1.511 -4.236,-1.282 -0.377,1.028 0.113,5.062 0.322,5.826 -2.245,0.5 -5.967,-0.963 -6.8,-0.216 -0.257,1.6 1.223,3.544 1.223,3.544 -1.714,-0.175 -4.987,0.024 -6.015,0.805 -0.219,0.212 0.377,1.542 1.241,2.4 a 7.115,7.115 0 0 0 4.428,1.858 c 0,0.027 -3.571,2.183 -4.764,3.749 a 31.976,31.976 0 0 0 3.132,1.028 c 1.371,0.446 5.288,-0.86 5.353,-0.86 -0.216,1.062 -0.942,3.9 -0.963,4.438 0.031,0.823 1.638,1.953 2.214,2.313 0,1.827 -0.178,7.139 -0.178,7.139 a 10.1,10.1 0 0 0 0.1,2.608 c 0.785,0.147 3.77,-0.631 3.876,-0.552 a 13.2,13.2 0 0 1 0.47,2.306 11.25,11.25 0 0 0 1.457,0.439 c 0.154,0.466 -0.24,1.254 0.021,1.676 0.2,0.6 1.162,0.754 1.714,0.98 0,1.066 0.041,2.121 0.041,3.187 0.278,0.572 2.4,1.337 2.965,1.672 0,-0.031 4.6,-4.455 4.606,-4.455 a 13.081,13.081 0 0 1 2.056,2.526 33.06,33.06 0 0 1 -3.427,5.8 c -0.11,0.2 0.593,0.685 0.685,0.819 a 17.234,17.234 0 0 0 2.091,-2.992 25.676,25.676 0 0 0 1.974,-3.886 c -0.775,-1 -1.672,-1.947 -2.4,-2.858 a 13.805,13.805 0 0 1 1.5,-2.536 1.028,1.028 0 0 0 -0.781,-0.264 68.353,68.353 0 0 1 -6.382,6.49 16.687,16.687 0 0 0 -1.669,-0.761 c -0.123,-0.668 0.13,-2.838 -0.1,-3.211 -0.264,-0.685 -1.172,-0.6 -1.714,-0.977 -0.034,0 -0.144,-0.089 -0.175,-0.106 0.082,-2.375 0,-1.755 -1.5,-2.5 a 0.648,0.648 0 0 1 -0.127,-0.466 10.536,10.536 0 0 0 -0.25,-2.608 19.936,19.936 0 0 0 -3.845,1.086 c -0.065,0 -0.1,0 -0.113,-0.021 l -0.027,-0.1 v -0.223 m 39.412,-21.231 a 2.925,2.925 0 0 1 -1.066,1.251 c -3.29,2.937 -4.329,2.19 -7.913,1.738 2.163,-3.629 7.2,-4.061 8.979,-2.988 M 89.046,121.83 c 1.155,3.362 -0.593,7.6 -6.793,8.568 0,-0.031 5.4,-2.464 5.638,-5.96 a 8.8,8.8 0 0 0 -1.669,-0.394 6.126,6.126 0 0 1 2.824,-2.228 m -26.208,-3.7 a 15,15 0 0 1 4.592,2.341 5.66,5.66 0 0 1 1.066,2.649 5.36,5.36 0 0 1 -0.123,3.571 c -1.59,-0.168 -4.623,-3.132 -5.141,-5.011 a 8.993,8.993 0 0 1 -0.4,-3.551 m -10.727,9.6 c 0.685,-0.874 5.141,-0.816 5.9,-0.343 a 16.332,16.332 0 0 0 2.666,1.556 c -0.343,0.589 -2.241,1.22 -3.557,1.193 -1.837,-0.031 -4.167,-1.062 -5.011,-2.4 m 6.758,6.642 a 6.148,6.148 0 0 1 -1.844,0.343 8.073,8.073 0 0 1 -2.982,-0.514 28.149,28.149 0 0 1 5.965,-3.666 7.109,7.109 0 0 1 3,-0.034 c -0.312,1.028 -3.15,3.4 -4.133,3.866 m 3.475,-5.511 c -1.861,-0.617 -5.3,-3.643 -5.751,-5.456 a 13.469,13.469 0 0 1 3.383,0.565 6.87,6.87 0 0 1 4.181,1.518 6.157,6.157 0 0 1 1.748,2.851 5.042,5.042 0 0 1 -3.571,0.524 m 5.086,5.549 c -1.028,0.514 -2.42,0.456 -3.962,0.853 1.412,-6.467 6.3,-6.827 7.461,-6.834 a 6.567,6.567 0 0 1 -3.5,5.98 m 3.18,-8.753 c -1.642,-2.68 -1.669,-4.9 -0.291,-7.958 1.69,0.23 5.161,5.518 1.936,9.558 a 4.3,4.3 0 0 1 -1.645,-1.6 m 3.866,12.307 c -0.384,-1.642 -1.457,-2.824 -1.875,-4.558 a 3.93,3.93 0 0 1 -0.062,-2.187 9.438,9.438 0 0 1 1.484,-2.68 c 2.163,0.946 2.958,7.314 0.452,9.425 m -0.123,-11.224 c 0.223,-2.879 3.427,-5.573 7.862,-6.063 a 7.338,7.338 0 0 1 -4.867,6.063 14.26,14.26 0 0 1 -3,0 m 5.319,11.906 c -0.343,-1.542 -2.615,-5.271 -1.953,-7.406 0.178,-0.572 0.367,-1.176 0.62,-1.792 0.98,0.435 2.214,2.492 2.464,3.287 0.74,2.4 -0.637,5.713 -1.131,5.912 m 0.977,-9.747 a 6.621,6.621 0 0 1 -2.235,-0.966 c 2.289,-2.42 5.919,-3.934 8.03,-3.084 a 6.536,6.536 0 0 1 -3.425,3.41 5.529,5.529 0 0 1 -2.361,0.641 m 1.275,9.055 c 0.24,-1.738 0.685,-4.407 1.9,-5.22 A 9.256,9.256 0 0 1 87.1,131.6 c 0.61,1.748 -1.974,6.145 -5.189,6.347 m 7.142,4.822 c -0.295,-0.617 -0.819,-1.343 -1.1,-1.977 a 8.619,8.619 0 0 1 0.326,-5.579 c 0.442,-0.956 1.436,-1.371 2.025,-2.145 2.056,1.96 -0.507,9.373 -1.254,9.7 M 86.428,130.43 c 1.683,-0.85 2.56,-2.54 4.047,-3.568 2.488,-1.714 4.647,-1.33 5.117,-0.867 a 16.409,16.409 0 0 1 -3.187,3.77 c -1.933,1.131 -5.439,1.237 -5.984,0.685 m 8.887,13.6 A 5.668,5.668 0 0 1 93,142.018 c -1.477,-2.193 -0.87,-4.932 0.288,-6.947 a 8.342,8.342 0 0 1 1.162,1.347 c 1.861,2.6 1.422,4.178 0.867,7.632 m 6.957,0.709 c -3.163,-0.12 -5.113,-3.084 -5.124,-6.316 a 4.651,4.651 0 0 1 2.492,1.309 10.8,10.8 0 0 1 2.632,5.007 m -6.59,-9.767 c 1.971,-2.454 9.425,0.747 9.425,1.834 a 9.413,9.413 0 0 1 -3.307,0.685 c -2.426,0.223 -5.785,-2.056 -6.118,-2.516"
         transform="translate(-33.283,-74.081)" />
      <path
         style="fill:#ffffff;fill-rule:evenodd"
         inkscape:connector-curvature="0"
         id="Path_71"
         data-name="Path 71"
         d="m 53.089,103.539 a 1.943,1.943 0 0 1 -0.1,2.81 1.9,1.9 0 0 1 -2.814,0.027 1.953,1.953 0 0 1 0.1,-2.817 1.907,1.907 0 0 1 2.814,-0.021 m 0.768,-0.747 a 2.928,2.928 0 0 0 -4.291,0.038 2.979,2.979 0 0 0 -0.161,4.291 2.932,2.932 0 0 0 4.294,-0.038 2.973,2.973 0 0 0 0.158,-4.291"
         transform="translate(-31.923,-66.96)" />
      <path
         style="fill:#ffffff;fill-rule:evenodd"
         inkscape:connector-curvature="0"
         id="Path_72"
         data-name="Path 72"
         d="m 72.756,95.063 -3.341,-2.252 0.73,3.958 -1.014,0.188 L 68.04,91 68.29,90.832 73.325,94.2 Z"
         transform="translate(-44.722,-59.701)" />
      <path
         style="fill:#ffffff;fill-rule:evenodd"
         inkscape:connector-curvature="0"
         id="Path_73"
         data-name="Path 73"
         d="m 81.618,84.354 0.939,2.063 -0.929,0.425 -0.936,-2.067 -3.032,-2.086 0.631,-0.788 2.4,1.655 0.332,-2.9 1,0.038 z"
         transform="translate(-51.045,-53.016)" />
      <path
         style="fill:#ffffff;fill-rule:evenodd"
         inkscape:connector-curvature="0"
         id="Path_74"
         data-name="Path 74"
         d="m 103.045,79.608 -1.241,-3.76 -1.326,2.618 -0.175,0.038 -2.358,-1.748 0.572,3.921 -1.008,0.141 -0.84,-5.788 0.37,-0.178 3.026,2.269 1.7,-3.386 h 0.4 l 1.837,5.555 z"
         transform="translate(-63.54,-48.461)" />
      <path
         style="fill:#ffffff;fill-rule:evenodd"
         inkscape:connector-curvature="0"
         id="Path_75"
         data-name="Path 75"
         d="m 126.461,78.412 -0.058,-4.678 -2.492,0.038 0.062,4.671 -1.021,0.01 -0.072,-5.653 4.524,-0.062 0.079,5.658 z"
         transform="translate(-80.767,-47.811)" />
      <path
         style="fill:#ffffff;fill-rule:evenodd"
         inkscape:connector-curvature="0"
         id="Path_76"
         data-name="Path 76"
         d="m 142.33,79.217 0.744,-5.607 1.014,0.137 -0.751,5.607 z"
         transform="translate(-93.551,-48.383)" />
      <path
         style="fill:#ffffff;fill-rule:evenodd"
         inkscape:connector-curvature="0"
         id="Path_77"
         data-name="Path 77"
         d="m 153.245,80.5 -1.532,-0.422 1.237,-1.518 z m 1.347,2 -0.908,-6.018 -0.295,-0.079 -3.859,4.705 0.8,0.658 0.685,-0.857 2.375,0.651 0.161,1.1 z"
         transform="translate(-98.284,-50.216)" />
      <path
         style="fill:#ffffff;fill-rule:evenodd"
         inkscape:connector-curvature="0"
         id="Path_78"
         data-name="Path 78"
         d="m 170.426,87.879 -1.11,-3.66 -1.216,2.553 -0.918,-0.435 2.418,-5.117 0.925,0.446 -0.826,1.727 2.557,-0.908 1.152,0.541 -3.057,1.1 1.33,4.353 z"
         transform="translate(-109.885,-53.385)" />
      <path
         style="fill:#ffffff;fill-rule:evenodd"
         inkscape:connector-curvature="0"
         id="Path_79"
         data-name="Path 79"
         d="m 187.719,95.977 a 1.94,1.94 0 0 1 -2.783,0.4 1.906,1.906 0 0 1 -0.528,-2.766 1.95,1.95 0 0 1 2.79,-0.4 1.9,1.9 0 0 1 0.521,2.762 m 0.874,0.62 a 2.925,2.925 0 0 0 -0.8,-4.212 2.981,2.981 0 0 0 -4.25,0.607 2.927,2.927 0 0 0 0.805,4.212 2.977,2.977 0 0 0 4.246,-0.607"
         transform="translate(-120.263,-60.314)" />
      <path
         style="fill:#ffffff;fill-rule:evenodd"
         inkscape:connector-curvature="0"
         id="Path_80"
         data-name="Path 80"
         d="m 196.09,106.757 0.4,-0.391 2.79,-0.617 0.353,-2.337 0.555,-0.552 2.536,2.57 -0.706,0.7 -1.515,-1.535 -0.3,2.015 -2.375,0.518 1.6,1.614 -0.7,0.692 z"
         transform="translate(-128.887,-67.608)" />
      <path
         style="fill:#ffffff;fill-rule:evenodd"
         inkscape:connector-curvature="0"
         id="Path_81"
         data-name="Path 81"
         d="m 30.786,126.3 0.278,0.154 1.587,2.738 2.615,-0.271 0.4,0.233 -1.707,3.057 -0.473,-0.264 1.3,-2.33 -2.485,0.254 -1.463,-2.543 -1.361,2.437 L 29,129.5 Z"
         transform="translate(-19.061,-83.015)" />
      <path
         style="fill:#ffffff;fill-rule:evenodd"
         inkscape:connector-curvature="0"
         id="Path_82"
         data-name="Path 82"
         d="m 26.3,146.409 -2.039,-0.771 0.216,-0.6 2.049,0.771 3.838,-0.843 0.154,0.62 -3.472,0.757 2.1,2.865 -0.531,0.37 z"
         transform="translate(-15.946,-95.286)" />
      <path
         style="fill:#ffffff;fill-rule:evenodd"
         inkscape:connector-curvature="0"
         id="Path_83"
         data-name="Path 83"
         d="m 17.685,182.288 0.031,-3.465 3.914,1.762 z m -0.384,0.86 5.59,-2.42 V 180.5 l -5.528,-2.516 -0.188,0.192 -0.045,4.8 z"
         transform="translate(-11.259,-116.983)" />
      <path
         style="fill:#ffffff;fill-rule:evenodd"
         inkscape:connector-curvature="0"
         id="Path_84"
         data-name="Path 84"
         d="m 17.85,197.7 5.6,-0.816 0.411,2.8 -0.541,0.082 -0.32,-2.177 -1.6,0.236 0.295,2 -0.545,0.072 -0.291,-2 -2.375,0.353 0.367,2.492 -0.541,0.075 z"
         transform="translate(-11.733,-129.406)" />
      <path
         style="fill:#ffffff;fill-rule:evenodd"
         inkscape:connector-curvature="0"
         id="Path_85"
         data-name="Path 85"
         d="m 20.53,211.422 0.312,-0.093 3.074,0.764 1.621,-2.08 0.442,-0.134 1.021,3.349 -0.521,0.161 -0.778,-2.553 -1.538,1.964 -2.855,-0.706 0.819,2.673 -0.521,0.154 z"
         transform="translate(-13.494,-137.951)" />
      <path
         style="fill:#ffffff;fill-rule:evenodd"
         inkscape:connector-curvature="0"
         id="Path_86"
         data-name="Path 86"
         d="m 28.191,231.484 3.972,-2.533 -3.7,-0.291 -0.141,-0.264 1.885,-3.191 -4.347,1.795 -0.25,-0.583 5.432,-2.258 0.178,0.4 -2.128,3.6 4.171,0.326 0.23,0.377 -4.959,3.156 z"
         transform="translate(-16.833,-147.337)" />
      <path
         style="fill:#ffffff;fill-rule:evenodd"
         inkscape:connector-curvature="0"
         id="Path_87"
         data-name="Path 87"
         d="m 45.942,250.3 a 2.365,2.365 0 0 1 -3.393,-0.367 2.311,2.311 0 0 1 0.219,-3.407 2.348,2.348 0 0 1 3.386,0.374 2.3,2.3 0 0 1 -0.212,3.4 m 0.4,0.487 a 2.924,2.924 0 0 0 0.274,-4.281 2.983,2.983 0 0 0 -4.263,-0.47 2.936,2.936 0 0 0 -0.274,4.284 2.973,2.973 0 0 0 4.263,0.466"
         transform="translate(-27.137,-161.258)" />
      <path
         style="fill:#ffffff;fill-rule:evenodd"
         inkscape:connector-curvature="0"
         id="Path_88"
         data-name="Path 88"
         d="m 53.92,262.067 0.2,-0.243 2.988,-1.042 0.23,-2.622 0.291,-0.36 2.69,2.245 -0.35,0.418 -2.046,-1.707 -0.209,2.485 -2.779,0.966 2.145,1.793 -0.35,0.411 z"
         transform="translate(-35.441,-169.448)" />
      <path
         style="fill:#ffffff;fill-rule:evenodd"
         inkscape:connector-curvature="0"
         id="Path_89"
         data-name="Path 89"
         d="m 85.543,278.991 c -0.425,0.994 -1.659,1.237 -2.9,0.826 l 1.511,-3.509 c 1.22,0.637 1.82,1.69 1.371,2.683 m 0.589,0.247 c 0.531,-1.254 -0.192,-2.659 -1.755,-3.448 l 0.106,-0.243 -0.6,-0.257 -0.106,0.254 c -1.563,-0.555 -3.15,-0.161 -3.691,1.1 -0.541,1.261 0.188,2.649 1.741,3.427 l -0.171,0.4 0.589,0.26 0.175,-0.411 c 1.58,0.548 3.174,0.158 3.712,-1.1 m -4.082,0.326 c -1.2,-0.631 -1.8,-1.679 -1.371,-2.67 0.429,-0.991 1.662,-1.251 2.879,-0.829 z"
         transform="translate(-52.512,-180.944)" />
      <path
         style="fill:#ffffff;fill-rule:evenodd"
         inkscape:connector-curvature="0"
         id="Path_90"
         data-name="Path 90"
         d="m 101.16,285.643 1.429,-5.473 0.617,0.164 -1.429,5.473 z"
         transform="translate(-66.491,-184.151)" />
      <path
         style="fill:#ffffff;fill-rule:evenodd"
         inkscape:connector-curvature="0"
         id="Path_91"
         data-name="Path 91"
         d="m 113.255,288.615 -1.234,-4.76 -2.423,4.291 -0.528,-0.332 3.023,-5.333 0.226,0.027 1.542,5.96 z"
         transform="translate(-71.69,-185.669)" />
      <path
         style="fill:#ffffff;fill-rule:evenodd"
         inkscape:connector-curvature="0"
         id="Path_92"
         data-name="Path 92"
         d="m 130.916,287.337 -2.317,0.075 1.069,-2.779 z m 1.426,1.594 -2.6,-5.621 h -0.233 l -2.231,5.764 0.579,0.236 0.531,-1.35 2.773,-0.089 0.6,1.3 z"
         transform="translate(-83.659,-186.215)" />
      <path
         style="fill:#ffffff;fill-rule:evenodd"
         inkscape:connector-curvature="0"
         id="Path_93"
         data-name="Path 93"
         d="m 172.766,280.241 -3.485,-3.461 0.11,4.928 -0.637,-0.017 -0.113,-6.128 0.206,-0.093 4.366,4.335 z"
         transform="translate(-110.844,-181.062)" />
      <path
         style="fill:#ffffff;fill-rule:evenodd"
         inkscape:connector-curvature="0"
         id="Path_94"
         data-name="Path 94"
         d="m 185.918,269.415 1.107,-0.74 0.3,0.449 -1.789,1.2 -0.425,-0.637 a 2.913,2.913 0 0 0 0.288,-2.893 2.483,2.483 0 0 0 -4.1,2.735 2.906,2.906 0 0 0 2.779,0.847 l 0.425,0.631 -1.792,1.2 -0.3,-0.449 1.114,-0.744 a 2.744,2.744 0 0 1 -1.714,-5.158 2.942,2.942 0 0 1 4.113,0.586 3.007,3.007 0 0 1 0,2.978"
         transform="translate(-118.536,-174.366)" />
      <path
         style="fill:#ffffff;fill-rule:evenodd"
         inkscape:connector-curvature="0"
         id="Path_95"
         data-name="Path 95"
         d="m 220.746,229.384 -4.523,-2.384 -1.385,2.635 4.524,2.378 -0.3,0.562 -5,-2.632 1.981,-3.763 5,2.642 z"
         transform="translate(-140.698,-148.664)" />
      <path
         style="fill:#ffffff;fill-rule:evenodd"
         inkscape:connector-curvature="0"
         id="Path_96"
         data-name="Path 96"
         d="m 227.374,217.172 -5.374,-1.779 0.888,-2.683 0.514,0.175 -0.685,2.08 1.539,0.5 0.634,-1.923 0.521,0.175 -0.637,1.919 2.279,0.757 0.8,-2.392 0.514,0.171 z"
         transform="translate(-145.917,-139.811)" />
      <path
         style="fill:#ffffff;fill-rule:evenodd"
         inkscape:connector-curvature="0"
         id="Path_97"
         data-name="Path 97"
         d="m 231.392,207.135 -5.542,-1.145 0.134,-0.631 5.538,1.152 z"
         transform="translate(-148.447,-134.98)" />
      <path
         style="fill:#ffffff;fill-rule:evenodd"
         inkscape:connector-curvature="0"
         id="Path_98"
         data-name="Path 98"
         d="m 229.228,189.968 a 1.2,1.2 0 0 1 0.942,1.35 l -0.079,0.915 -2.132,-0.192 0.089,-1 a 1.033,1.033 0 0 1 1.179,-1.073 m 0.051,-0.634 a 1.618,1.618 0 0 0 -1.775,1.648 l -0.144,1.642 5.638,0.5 0.055,-0.637 -2.42,-0.216 0.082,-0.908 a 1.8,1.8 0 0 0 -1.436,-2.032"
         transform="translate(-149.44,-124.44)" />
      <path
         style="fill:#ffffff;fill-rule:evenodd"
         inkscape:connector-curvature="0"
         id="Path_99"
         data-name="Path 99"
         d="m 231.726,174.273 0.117,2.31 -2.8,-1 z m 1.556,-1.463 -5.562,2.725 v 0.226 l 5.806,2.1 0.233,-0.579 -1.371,-0.5 -0.151,-2.773 1.289,-0.637 z"
         transform="translate(-149.677,-113.585)" />
      <path
         style="fill:#ffffff;fill-rule:evenodd"
         inkscape:connector-curvature="0"
         id="Path_100"
         data-name="Path 100"
         d="m 232.109,165.964 -5.566,1.008 -0.113,-0.627 5.566,-1 z"
         transform="translate(-148.829,-108.675)" />
      <path
         style="fill:#ffffff;fill-rule:evenodd"
         inkscape:connector-curvature="0"
         id="Path_101"
         data-name="Path 101"
         d="m 226.482,142.913 -0.439,-1.261 0.514,-0.182 0.709,2.032 -0.723,0.26 a 2.908,2.908 0 0 0 -2.742,-1.011 2.483,2.483 0 0 0 1.621,4.654 2.907,2.907 0 0 0 1.515,-2.481 l 0.723,-0.257 0.706,2.039 -0.518,0.182 -0.442,-1.268 a 2.885,2.885 0 1 1 -3.818,-3.475 3.01,3.01 0 0 1 2.879,0.768"
         transform="translate(-145.785,-92.986)" />
      <path
         style="fill:#ffffff;fill-rule:evenodd"
         inkscape:connector-curvature="0"
         id="Path_102"
         data-name="Path 102"
         d="m 219.71,129.1 -0.278,0.165 -3.167,-0.082 -1.131,2.378 -0.4,0.223 -1.734,-3.043 0.48,-0.267 1.319,2.32 1.073,-2.252 2.937,0.072 -1.378,-2.426 0.473,-0.267 z"
         transform="translate(-140.001,-82.765)" />
      <path
         style="fill:#ffffff;fill-rule:evenodd"
         inkscape:connector-curvature="0"
         id="Path_103"
         data-name="Path 103"
         d="m 18.057,161.924 h 0.014 l 4.527,-2.176 -3.965,-1.124 0.2,-0.6 5.547,1.576 -5.213,2.543 4.433,0.857 -0.123,0.627 -5.549,-1.083 z"
         transform="translate(-11.785,-103.864)" />
      <path
         style="fill:#ffffff;fill-rule:evenodd"
         inkscape:connector-curvature="0"
         id="Path_104"
         data-name="Path 104"
         d="m 150.333,283.06 a 2.354,2.354 0 0 1 -1.919,2.814 2.3,2.3 0 0 1 -2.9,-1.789 2.358,2.358 0 0 1 1.919,-2.81 2.307,2.307 0 0 1 2.9,1.786 m 0.624,-0.12 a 2.922,2.922 0 0 0 -3.643,-2.259 2.963,2.963 0 0 0 -2.416,3.537 3.092,3.092 0 0 0 6.046,-1.278"
         transform="translate(-95.193,-184.433)" />
      <path
         style="fill:#ffffff;fill-rule:evenodd"
         inkscape:connector-curvature="0"
         id="Path_105"
         data-name="Path 105"
         d="m 152.291,288 -3.335,0.709 -0.117,-0.559 3.335,-0.7 z"
         transform="translate(-97.83,-188.936)" />
      <path
         style="fill:#ffffff;fill-rule:evenodd"
         inkscape:connector-curvature="0"
         id="Path_106"
         data-name="Path 106"
         d="m 202.449,254.6 -0.01,-0.007 -4.976,-0.7 2.67,3.136 -0.5,0.387 -3.725,-4.4 5.741,0.778 -3.211,-3.174 0.452,-0.449 4.006,3.979 z"
         transform="translate(-128.768,-164.433)" />
    </g>
  </g>
  <g
     id="olympiackos-official_logo-3"
     data-name="olympiackos-official logo"
     transform="matrix(4.797568,0,0,4.797568,799.7132,70.997154)">
    <g
       id="Layer_1-6"
       data-name="Layer 1">
      <path
         style="fill:#ffffff;fill-rule:evenodd"
         inkscape:connector-curvature="0"
         id="Path_62-7"
         data-name="Path 62"
         d="M 89.97,100.522 A 44.985,44.985 0 1 1 44.986,55.54 44.986,44.986 0 0 1 89.97,100.522"
         transform="translate(0,-36.506)" />
      <path
         style="fill:#dc0d15;fill-rule:evenodd"
         inkscape:connector-curvature="0"
         id="Path_63-8"
         data-name="Path 63"
         d="m 21.512,77.043 a 41.811,41.811 0 1 0 59.13,0 41.81,41.81 0 0 0 -59.13,0 m 0.343,58.79 a 41.327,41.327 0 1 1 58.446,0 41.325,41.325 0 0 1 -58.446,0"
         transform="translate(-6.09,-42.589)" />
      <path
         style="fill:#dc0d15;fill-rule:evenodd"
         inkscape:connector-curvature="0"
         id="Path_64-6"
         data-name="Path 64"
         d="M 53.609,68.67 A 40.485,40.485 0 1 0 94.09,109.153 40.486,40.486 0 0 0 53.609,68.67 m 0,72.313 a 31.821,31.821 0 1 1 31.814,-31.82 31.823,31.823 0 0 1 -31.814,31.82"
         transform="translate(-8.624,-45.136)" />
      <path
         style="fill:#dc0d15;fill-rule:evenodd"
         inkscape:connector-curvature="0"
         id="Path_65-2"
         data-name="Path 65"
         d="M 40.83,127.358 A 30.988,30.988 0 1 0 71.82,96.37 30.988,30.988 0 0 0 40.83,127.358 m 0.483,0 a 30.5,30.5 0 1 1 30.5,30.5 30.5,30.5 0 0 1 -30.5,-30.5"
         transform="translate(-26.837,-63.342)" />
      <path
         style="fill:#dc0d15;fill-rule:evenodd"
         inkscape:connector-curvature="0"
         id="Path_66-0"
         data-name="Path 66"
         d="m 158.82,223.223 c -0.47,-0.045 -0.487,-0.141 -0.487,-0.744 v -1.786 c 0,-0.6 0.024,-0.651 0.535,-0.74 l 0.147,-0.031 c 0.058,-0.038 0.051,-0.189 -0.031,-0.2 -0.209,0 -0.589,0.021 -0.977,0.021 -0.388,0 -0.809,0 -0.984,-0.021 -0.075,0 -0.079,0.164 -0.021,0.2 l 0.147,0.031 c 0.507,0.089 0.535,0.141 0.535,0.74 v 1.786 c 0,0.6 -0.021,0.685 -0.535,0.744 l -0.24,0.027 a 0.137,0.137 0 0 0 0.034,0.212 c 0.161,-0.027 0.685,-0.027 1.062,-0.027 0.377,0 0.86,0 1.066,0.027 a 0.134,0.134 0 0 0 0.027,-0.212 l -0.281,-0.027"
         transform="translate(-103.111,-144.418)" />
      <path
         style="fill:#dc0d15;fill-rule:evenodd"
         inkscape:connector-curvature="0"
         id="Path_67-1"
         data-name="Path 67"
         d="m 166.652,219.4 a 1.683,1.683 0 0 0 -1.714,1.7 1.206,1.206 0 0 0 1.152,1.292 1.313,1.313 0 0 0 0.85,-0.3 c 0,-0.069 0,-0.137 -0.055,-0.158 a 0.987,0.987 0 0 1 -0.422,0.072 c -0.583,0 -0.9,-0.72 -0.9,-1.261 a 0.936,0.936 0 0 1 0.888,-1.056 c 0.85,0 1.028,0.915 1.028,1.494 a 3.664,3.664 0 0 1 -1.391,2.906 4.34,4.34 0 0 1 -1.23,0.651 c -0.058,0.051 0,0.158 0.045,0.188 a 4.157,4.157 0 0 0 2.025,-0.99 3.712,3.712 0 0 0 1.289,-2.721 c 0,-1.066 -0.507,-1.827 -1.559,-1.827"
         transform="translate(-108.339,-144.201)" />
      <path
         style="fill:#dc0d15;fill-rule:evenodd"
         inkscape:connector-curvature="0"
         id="Path_68-7"
         data-name="Path 68"
         d="m 180.562,222.279 c -0.206,0.422 -0.4,0.432 -0.874,0.432 h -1.028 c -0.147,0 -0.171,-0.051 -0.165,-0.123 l 0.685,-0.744 c 0.524,-0.572 0.788,-0.9 0.788,-1.426 a 1.028,1.028 0 0 0 -1.134,-1.028 1.648,1.648 0 0 0 -1.395,0.984 0.134,0.134 0 0 0 0.175,0.123 1.059,1.059 0 0 1 0.891,-0.6 0.74,0.74 0 0 1 0.771,0.843 2.536,2.536 0 0 1 -0.9,1.542 7.382,7.382 0 0 1 -0.877,0.8 0.117,0.117 0 0 0 0.051,0.151 6.428,6.428 0 0 1 0.778,-0.027 h 0.86 c 0.5,0 0.867,0 1.193,0.027 0.106,-0.25 0.254,-0.562 0.408,-0.894 a 0.147,0.147 0 0 0 -0.209,-0.072"
         transform="translate(-116.628,-144.201)" />
      <path
         style="fill:#dc0d15;fill-rule:evenodd"
         inkscape:connector-curvature="0"
         id="Path_69-1"
         data-name="Path 69"
         d="m 190.819,219.341 a 1,1 0 0 1 -0.476,0.13 l -0.6,0.082 c -0.281,0.045 -0.456,0.069 -0.569,0.1 a 1.21,1.21 0 0 0 -0.384,0.572 2.162,2.162 0 0 0 -0.2,0.685 c 0,0.308 0.319,0.48 0.685,0.751 a 1.522,1.522 0 0 1 0.716,1.213 2.052,2.052 0 0 1 -1.395,1.758 0.151,0.151 0 0 0 0.065,0.24 c 0.641,-0.189 1.933,-0.987 1.933,-2.2 a 1.911,1.911 0 0 0 -0.97,-1.577 c -0.113,-0.082 -0.271,-0.185 -0.415,-0.281 -0.236,-0.161 -0.291,-0.264 -0.236,-0.422 0.055,-0.158 0.082,-0.206 0.343,-0.24 l 1.11,-0.165 c 0.274,-0.031 0.439,-0.367 0.5,-0.555 a 0.1,0.1 0 0 0 -0.1,-0.113"
         transform="translate(-123.941,-144.155)" />
      <path
         style="fill:#dc0d15;fill-rule:evenodd"
         inkscape:connector-curvature="0"
         id="Path_70-2"
         data-name="Path 70"
         d="m 62.187,150.126 a 52.64,52.64 0 0 1 0.216,-6 c 0.075,-0.559 0.106,-1.134 0.178,-1.624 a 1.9,1.9 0 0 1 0.2,-0.771 45.108,45.108 0 0 1 4.634,0.685 17.839,17.839 0 0 1 2.4,-1.738 c 0.562,-0.4 1.265,-0.884 1.738,-1.258 a 0.267,0.267 0 0 0 0.1,-0.192 2.488,2.488 0 0 0 -0.192,-0.864 12.45,12.45 0 0 0 -2.512,0.768 c -1.3,0.446 -2.642,0.713 -3.862,1.066 -0.912,0.26 -2,0.637 -2.8,0.768 a 2.387,2.387 0 0 1 -1.734,-1.251 c -0.37,-0.843 0.925,-4.047 0.685,-5.4 1.251,-1.258 1.851,-2.084 2.4,-2.317 a 8.64,8.64 0 0 0 -1.371,4.589 22.326,22.326 0 0 0 4.829,-0.85 8.485,8.485 0 0 0 4.263,-3.163 c 0.6,3.29 1.775,4.356 2.632,6.981 1.813,0.075 3.15,-5.052 3.184,-5.052 0.764,3 1.8,3.6 2.2,5.5 0.72,-0.106 1.371,-1.662 1.81,-1.748 a 5.355,5.355 0 0 0 0.219,0.771 9.809,9.809 0 0 0 5.442,-2.683 c -1.371,3.331 1.662,7.7 1.991,8.006 1.176,-0.5 2.635,-2.632 2.9,-2.9 a 7.4,7.4 0 0 0 2.4,3.18 c 0.518,0.363 0.96,0.593 1.5,0.932 0.545,-0.49 0.939,-2.193 1.224,-2.519 1.354,1.487 4.195,3.084 6.237,2.344 0,0 -0.343,-4.959 -3.571,-6.854 0.456,0.055 1.121,0.233 1.556,0.322 0.727,0.137 4.113,-0.439 5.312,-1.834 -0.963,-1.463 -2.869,-3.489 -7.07,-3.736 1.028,-0.343 3.427,-3.307 3.623,-4.925 -0.949,-0.867 -2.533,-1 -3.694,-1.244 a 4.9,4.9 0 0 0 -1.947,-4.349 c -0.093,-0.254 -0.247,-3.91 -4.932,-5.079 a 9.78,9.78 0 0 0 -4.061,-3.965 10.645,10.645 0 0 0 -8.383,-0.291 c -6.666,-1.028 -8.27,2.056 -8.715,2.519 a 7.053,7.053 0 0 0 -5.021,2.348 c -0.631,-0.062 -3.311,-1.511 -4.236,-1.282 -0.377,1.028 0.113,5.062 0.322,5.826 -2.245,0.5 -5.967,-0.963 -6.8,-0.216 -0.257,1.6 1.223,3.544 1.223,3.544 -1.714,-0.175 -4.987,0.024 -6.015,0.805 -0.219,0.212 0.377,1.542 1.241,2.4 a 7.115,7.115 0 0 0 4.428,1.858 c 0,0.027 -3.571,2.183 -4.764,3.749 a 31.976,31.976 0 0 0 3.132,1.028 c 1.371,0.446 5.288,-0.86 5.353,-0.86 -0.216,1.062 -0.942,3.9 -0.963,4.438 0.031,0.823 1.638,1.953 2.214,2.313 0,1.827 -0.178,7.139 -0.178,7.139 a 10.1,10.1 0 0 0 0.1,2.608 c 0.785,0.147 3.77,-0.631 3.876,-0.552 a 13.2,13.2 0 0 1 0.47,2.306 11.25,11.25 0 0 0 1.457,0.439 c 0.154,0.466 -0.24,1.254 0.021,1.676 0.2,0.6 1.162,0.754 1.714,0.98 0,1.066 0.041,2.121 0.041,3.187 0.278,0.572 2.4,1.337 2.965,1.672 0,-0.031 4.6,-4.455 4.606,-4.455 a 13.081,13.081 0 0 1 2.056,2.526 33.06,33.06 0 0 1 -3.427,5.8 c -0.11,0.2 0.593,0.685 0.685,0.819 a 17.234,17.234 0 0 0 2.091,-2.992 25.676,25.676 0 0 0 1.974,-3.886 c -0.775,-1 -1.672,-1.947 -2.4,-2.858 a 13.805,13.805 0 0 1 1.5,-2.536 1.028,1.028 0 0 0 -0.781,-0.264 68.353,68.353 0 0 1 -6.382,6.49 16.687,16.687 0 0 0 -1.669,-0.761 c -0.123,-0.668 0.13,-2.838 -0.1,-3.211 -0.264,-0.685 -1.172,-0.6 -1.714,-0.977 -0.034,0 -0.144,-0.089 -0.175,-0.106 0.082,-2.375 0,-1.755 -1.5,-2.5 a 0.648,0.648 0 0 1 -0.127,-0.466 10.536,10.536 0 0 0 -0.25,-2.608 19.936,19.936 0 0 0 -3.845,1.086 c -0.065,0 -0.1,0 -0.113,-0.021 l -0.027,-0.1 v -0.223 m 39.412,-21.231 a 2.925,2.925 0 0 1 -1.066,1.251 c -3.29,2.937 -4.329,2.19 -7.913,1.738 2.163,-3.629 7.2,-4.061 8.979,-2.988 M 89.046,121.83 c 1.155,3.362 -0.593,7.6 -6.793,8.568 0,-0.031 5.4,-2.464 5.638,-5.96 a 8.8,8.8 0 0 0 -1.669,-0.394 6.126,6.126 0 0 1 2.824,-2.228 m -26.208,-3.7 a 15,15 0 0 1 4.592,2.341 5.66,5.66 0 0 1 1.066,2.649 5.36,5.36 0 0 1 -0.123,3.571 c -1.59,-0.168 -4.623,-3.132 -5.141,-5.011 a 8.993,8.993 0 0 1 -0.4,-3.551 m -10.727,9.6 c 0.685,-0.874 5.141,-0.816 5.9,-0.343 a 16.332,16.332 0 0 0 2.666,1.556 c -0.343,0.589 -2.241,1.22 -3.557,1.193 -1.837,-0.031 -4.167,-1.062 -5.011,-2.4 m 6.758,6.642 a 6.148,6.148 0 0 1 -1.844,0.343 8.073,8.073 0 0 1 -2.982,-0.514 28.149,28.149 0 0 1 5.965,-3.666 7.109,7.109 0 0 1 3,-0.034 c -0.312,1.028 -3.15,3.4 -4.133,3.866 m 3.475,-5.511 c -1.861,-0.617 -5.3,-3.643 -5.751,-5.456 a 13.469,13.469 0 0 1 3.383,0.565 6.87,6.87 0 0 1 4.181,1.518 6.157,6.157 0 0 1 1.748,2.851 5.042,5.042 0 0 1 -3.571,0.524 m 5.086,5.549 c -1.028,0.514 -2.42,0.456 -3.962,0.853 1.412,-6.467 6.3,-6.827 7.461,-6.834 a 6.567,6.567 0 0 1 -3.5,5.98 m 3.18,-8.753 c -1.642,-2.68 -1.669,-4.9 -0.291,-7.958 1.69,0.23 5.161,5.518 1.936,9.558 a 4.3,4.3 0 0 1 -1.645,-1.6 m 3.866,12.307 c -0.384,-1.642 -1.457,-2.824 -1.875,-4.558 a 3.93,3.93 0 0 1 -0.062,-2.187 9.438,9.438 0 0 1 1.484,-2.68 c 2.163,0.946 2.958,7.314 0.452,9.425 m -0.123,-11.224 c 0.223,-2.879 3.427,-5.573 7.862,-6.063 a 7.338,7.338 0 0 1 -4.867,6.063 14.26,14.26 0 0 1 -3,0 m 5.319,11.906 c -0.343,-1.542 -2.615,-5.271 -1.953,-7.406 0.178,-0.572 0.367,-1.176 0.62,-1.792 0.98,0.435 2.214,2.492 2.464,3.287 0.74,2.4 -0.637,5.713 -1.131,5.912 m 0.977,-9.747 a 6.621,6.621 0 0 1 -2.235,-0.966 c 2.289,-2.42 5.919,-3.934 8.03,-3.084 a 6.536,6.536 0 0 1 -3.425,3.41 5.529,5.529 0 0 1 -2.361,0.641 m 1.275,9.055 c 0.24,-1.738 0.685,-4.407 1.9,-5.22 A 9.256,9.256 0 0 1 87.1,131.6 c 0.61,1.748 -1.974,6.145 -5.189,6.347 m 7.142,4.822 c -0.295,-0.617 -0.819,-1.343 -1.1,-1.977 a 8.619,8.619 0 0 1 0.326,-5.579 c 0.442,-0.956 1.436,-1.371 2.025,-2.145 2.056,1.96 -0.507,9.373 -1.254,9.7 M 86.428,130.43 c 1.683,-0.85 2.56,-2.54 4.047,-3.568 2.488,-1.714 4.647,-1.33 5.117,-0.867 a 16.409,16.409 0 0 1 -3.187,3.77 c -1.933,1.131 -5.439,1.237 -5.984,0.685 m 8.887,13.6 A 5.668,5.668 0 0 1 93,142.018 c -1.477,-2.193 -0.87,-4.932 0.288,-6.947 a 8.342,8.342 0 0 1 1.162,1.347 c 1.861,2.6 1.422,4.178 0.867,7.632 m 6.957,0.709 c -3.163,-0.12 -5.113,-3.084 -5.124,-6.316 a 4.651,4.651 0 0 1 2.492,1.309 10.8,10.8 0 0 1 2.632,5.007 m -6.59,-9.767 c 1.971,-2.454 9.425,0.747 9.425,1.834 a 9.413,9.413 0 0 1 -3.307,0.685 c -2.426,0.223 -5.785,-2.056 -6.118,-2.516"
         transform="translate(-33.283,-74.081)" />
      <path
         style="fill:#ffffff;fill-rule:evenodd"
         inkscape:connector-curvature="0"
         id="Path_71-8"
         data-name="Path 71"
         d="m 53.089,103.539 a 1.943,1.943 0 0 1 -0.1,2.81 1.9,1.9 0 0 1 -2.814,0.027 1.953,1.953 0 0 1 0.1,-2.817 1.907,1.907 0 0 1 2.814,-0.021 m 0.768,-0.747 a 2.928,2.928 0 0 0 -4.291,0.038 2.979,2.979 0 0 0 -0.161,4.291 2.932,2.932 0 0 0 4.294,-0.038 2.973,2.973 0 0 0 0.158,-4.291"
         transform="translate(-31.923,-66.96)" />
      <path
         style="fill:#ffffff;fill-rule:evenodd"
         inkscape:connector-curvature="0"
         id="Path_72-9"
         data-name="Path 72"
         d="m 72.756,95.063 -3.341,-2.252 0.73,3.958 -1.014,0.188 L 68.04,91 68.29,90.832 73.325,94.2 Z"
         transform="translate(-44.722,-59.701)" />
      <path
         style="fill:#ffffff;fill-rule:evenodd"
         inkscape:connector-curvature="0"
         id="Path_73-0"
         data-name="Path 73"
         d="m 81.618,84.354 0.939,2.063 -0.929,0.425 -0.936,-2.067 -3.032,-2.086 0.631,-0.788 2.4,1.655 0.332,-2.9 1,0.038 z"
         transform="translate(-51.045,-53.016)" />
      <path
         style="fill:#ffffff;fill-rule:evenodd"
         inkscape:connector-curvature="0"
         id="Path_74-4"
         data-name="Path 74"
         d="m 103.045,79.608 -1.241,-3.76 -1.326,2.618 -0.175,0.038 -2.358,-1.748 0.572,3.921 -1.008,0.141 -0.84,-5.788 0.37,-0.178 3.026,2.269 1.7,-3.386 h 0.4 l 1.837,5.555 z"
         transform="translate(-63.54,-48.461)" />
      <path
         style="fill:#ffffff;fill-rule:evenodd"
         inkscape:connector-curvature="0"
         id="Path_75-2"
         data-name="Path 75"
         d="m 126.461,78.412 -0.058,-4.678 -2.492,0.038 0.062,4.671 -1.021,0.01 -0.072,-5.653 4.524,-0.062 0.079,5.658 z"
         transform="translate(-80.767,-47.811)" />
      <path
         style="fill:#ffffff;fill-rule:evenodd"
         inkscape:connector-curvature="0"
         id="Path_76-8"
         data-name="Path 76"
         d="m 142.33,79.217 0.744,-5.607 1.014,0.137 -0.751,5.607 z"
         transform="translate(-93.551,-48.383)" />
      <path
         style="fill:#ffffff;fill-rule:evenodd"
         inkscape:connector-curvature="0"
         id="Path_77-7"
         data-name="Path 77"
         d="m 153.245,80.5 -1.532,-0.422 1.237,-1.518 z m 1.347,2 -0.908,-6.018 -0.295,-0.079 -3.859,4.705 0.8,0.658 0.685,-0.857 2.375,0.651 0.161,1.1 z"
         transform="translate(-98.284,-50.216)" />
      <path
         style="fill:#ffffff;fill-rule:evenodd"
         inkscape:connector-curvature="0"
         id="Path_78-2"
         data-name="Path 78"
         d="m 170.426,87.879 -1.11,-3.66 -1.216,2.553 -0.918,-0.435 2.418,-5.117 0.925,0.446 -0.826,1.727 2.557,-0.908 1.152,0.541 -3.057,1.1 1.33,4.353 z"
         transform="translate(-109.885,-53.385)" />
      <path
         style="fill:#ffffff;fill-rule:evenodd"
         inkscape:connector-curvature="0"
         id="Path_79-0"
         data-name="Path 79"
         d="m 187.719,95.977 a 1.94,1.94 0 0 1 -2.783,0.4 1.906,1.906 0 0 1 -0.528,-2.766 1.95,1.95 0 0 1 2.79,-0.4 1.9,1.9 0 0 1 0.521,2.762 m 0.874,0.62 a 2.925,2.925 0 0 0 -0.8,-4.212 2.981,2.981 0 0 0 -4.25,0.607 2.927,2.927 0 0 0 0.805,4.212 2.977,2.977 0 0 0 4.246,-0.607"
         transform="translate(-120.263,-60.314)" />
      <path
         style="fill:#ffffff;fill-rule:evenodd"
         inkscape:connector-curvature="0"
         id="Path_80-0"
         data-name="Path 80"
         d="m 196.09,106.757 0.4,-0.391 2.79,-0.617 0.353,-2.337 0.555,-0.552 2.536,2.57 -0.706,0.7 -1.515,-1.535 -0.3,2.015 -2.375,0.518 1.6,1.614 -0.7,0.692 z"
         transform="translate(-128.887,-67.608)" />
      <path
         style="fill:#ffffff;fill-rule:evenodd"
         inkscape:connector-curvature="0"
         id="Path_81-6"
         data-name="Path 81"
         d="m 30.786,126.3 0.278,0.154 1.587,2.738 2.615,-0.271 0.4,0.233 -1.707,3.057 -0.473,-0.264 1.3,-2.33 -2.485,0.254 -1.463,-2.543 -1.361,2.437 L 29,129.5 Z"
         transform="translate(-19.061,-83.015)" />
      <path
         style="fill:#ffffff;fill-rule:evenodd"
         inkscape:connector-curvature="0"
         id="Path_82-2"
         data-name="Path 82"
         d="m 26.3,146.409 -2.039,-0.771 0.216,-0.6 2.049,0.771 3.838,-0.843 0.154,0.62 -3.472,0.757 2.1,2.865 -0.531,0.37 z"
         transform="translate(-15.946,-95.286)" />
      <path
         style="fill:#ffffff;fill-rule:evenodd"
         inkscape:connector-curvature="0"
         id="Path_83-8"
         data-name="Path 83"
         d="m 17.685,182.288 0.031,-3.465 3.914,1.762 z m -0.384,0.86 5.59,-2.42 V 180.5 l -5.528,-2.516 -0.188,0.192 -0.045,4.8 z"
         transform="translate(-11.259,-116.983)" />
      <path
         style="fill:#ffffff;fill-rule:evenodd"
         inkscape:connector-curvature="0"
         id="Path_84-4"
         data-name="Path 84"
         d="m 17.85,197.7 5.6,-0.816 0.411,2.8 -0.541,0.082 -0.32,-2.177 -1.6,0.236 0.295,2 -0.545,0.072 -0.291,-2 -2.375,0.353 0.367,2.492 -0.541,0.075 z"
         transform="translate(-11.733,-129.406)" />
      <path
         style="fill:#ffffff;fill-rule:evenodd"
         inkscape:connector-curvature="0"
         id="Path_85-2"
         data-name="Path 85"
         d="m 20.53,211.422 0.312,-0.093 3.074,0.764 1.621,-2.08 0.442,-0.134 1.021,3.349 -0.521,0.161 -0.778,-2.553 -1.538,1.964 -2.855,-0.706 0.819,2.673 -0.521,0.154 z"
         transform="translate(-13.494,-137.951)" />
      <path
         style="fill:#ffffff;fill-rule:evenodd"
         inkscape:connector-curvature="0"
         id="Path_86-8"
         data-name="Path 86"
         d="m 28.191,231.484 3.972,-2.533 -3.7,-0.291 -0.141,-0.264 1.885,-3.191 -4.347,1.795 -0.25,-0.583 5.432,-2.258 0.178,0.4 -2.128,3.6 4.171,0.326 0.23,0.377 -4.959,3.156 z"
         transform="translate(-16.833,-147.337)" />
      <path
         style="fill:#ffffff;fill-rule:evenodd"
         inkscape:connector-curvature="0"
         id="Path_87-5"
         data-name="Path 87"
         d="m 45.942,250.3 a 2.365,2.365 0 0 1 -3.393,-0.367 2.311,2.311 0 0 1 0.219,-3.407 2.348,2.348 0 0 1 3.386,0.374 2.3,2.3 0 0 1 -0.212,3.4 m 0.4,0.487 a 2.924,2.924 0 0 0 0.274,-4.281 2.983,2.983 0 0 0 -4.263,-0.47 2.936,2.936 0 0 0 -0.274,4.284 2.973,2.973 0 0 0 4.263,0.466"
         transform="translate(-27.137,-161.258)" />
      <path
         style="fill:#ffffff;fill-rule:evenodd"
         inkscape:connector-curvature="0"
         id="Path_88-8"
         data-name="Path 88"
         d="m 53.92,262.067 0.2,-0.243 2.988,-1.042 0.23,-2.622 0.291,-0.36 2.69,2.245 -0.35,0.418 -2.046,-1.707 -0.209,2.485 -2.779,0.966 2.145,1.793 -0.35,0.411 z"
         transform="translate(-35.441,-169.448)" />
      <path
         style="fill:#ffffff;fill-rule:evenodd"
         inkscape:connector-curvature="0"
         id="Path_89-4"
         data-name="Path 89"
         d="m 85.543,278.991 c -0.425,0.994 -1.659,1.237 -2.9,0.826 l 1.511,-3.509 c 1.22,0.637 1.82,1.69 1.371,2.683 m 0.589,0.247 c 0.531,-1.254 -0.192,-2.659 -1.755,-3.448 l 0.106,-0.243 -0.6,-0.257 -0.106,0.254 c -1.563,-0.555 -3.15,-0.161 -3.691,1.1 -0.541,1.261 0.188,2.649 1.741,3.427 l -0.171,0.4 0.589,0.26 0.175,-0.411 c 1.58,0.548 3.174,0.158 3.712,-1.1 m -4.082,0.326 c -1.2,-0.631 -1.8,-1.679 -1.371,-2.67 0.429,-0.991 1.662,-1.251 2.879,-0.829 z"
         transform="translate(-52.512,-180.944)" />
      <path
         style="fill:#ffffff;fill-rule:evenodd"
         inkscape:connector-curvature="0"
         id="Path_90-8"
         data-name="Path 90"
         d="m 101.16,285.643 1.429,-5.473 0.617,0.164 -1.429,5.473 z"
         transform="translate(-66.491,-184.151)" />
      <path
         style="fill:#ffffff;fill-rule:evenodd"
         inkscape:connector-curvature="0"
         id="Path_91-1"
         data-name="Path 91"
         d="m 113.255,288.615 -1.234,-4.76 -2.423,4.291 -0.528,-0.332 3.023,-5.333 0.226,0.027 1.542,5.96 z"
         transform="translate(-71.69,-185.669)" />
      <path
         style="fill:#ffffff;fill-rule:evenodd"
         inkscape:connector-curvature="0"
         id="Path_92-9"
         data-name="Path 92"
         d="m 130.916,287.337 -2.317,0.075 1.069,-2.779 z m 1.426,1.594 -2.6,-5.621 h -0.233 l -2.231,5.764 0.579,0.236 0.531,-1.35 2.773,-0.089 0.6,1.3 z"
         transform="translate(-83.659,-186.215)" />
      <path
         style="fill:#ffffff;fill-rule:evenodd"
         inkscape:connector-curvature="0"
         id="Path_93-0"
         data-name="Path 93"
         d="m 172.766,280.241 -3.485,-3.461 0.11,4.928 -0.637,-0.017 -0.113,-6.128 0.206,-0.093 4.366,4.335 z"
         transform="translate(-110.844,-181.062)" />
      <path
         style="fill:#ffffff;fill-rule:evenodd"
         inkscape:connector-curvature="0"
         id="Path_94-4"
         data-name="Path 94"
         d="m 185.918,269.415 1.107,-0.74 0.3,0.449 -1.789,1.2 -0.425,-0.637 a 2.913,2.913 0 0 0 0.288,-2.893 2.483,2.483 0 0 0 -4.1,2.735 2.906,2.906 0 0 0 2.779,0.847 l 0.425,0.631 -1.792,1.2 -0.3,-0.449 1.114,-0.744 a 2.744,2.744 0 0 1 -1.714,-5.158 2.942,2.942 0 0 1 4.113,0.586 3.007,3.007 0 0 1 0,2.978"
         transform="translate(-118.536,-174.366)" />
      <path
         style="fill:#ffffff;fill-rule:evenodd"
         inkscape:connector-curvature="0"
         id="Path_95-5"
         data-name="Path 95"
         d="m 220.746,229.384 -4.523,-2.384 -1.385,2.635 4.524,2.378 -0.3,0.562 -5,-2.632 1.981,-3.763 5,2.642 z"
         transform="translate(-140.698,-148.664)" />
      <path
         style="fill:#ffffff;fill-rule:evenodd"
         inkscape:connector-curvature="0"
         id="Path_96-3"
         data-name="Path 96"
         d="m 227.374,217.172 -5.374,-1.779 0.888,-2.683 0.514,0.175 -0.685,2.08 1.539,0.5 0.634,-1.923 0.521,0.175 -0.637,1.919 2.279,0.757 0.8,-2.392 0.514,0.171 z"
         transform="translate(-145.917,-139.811)" />
      <path
         style="fill:#ffffff;fill-rule:evenodd"
         inkscape:connector-curvature="0"
         id="Path_97-2"
         data-name="Path 97"
         d="m 231.392,207.135 -5.542,-1.145 0.134,-0.631 5.538,1.152 z"
         transform="translate(-148.447,-134.98)" />
      <path
         style="fill:#ffffff;fill-rule:evenodd"
         inkscape:connector-curvature="0"
         id="Path_98-7"
         data-name="Path 98"
         d="m 229.228,189.968 a 1.2,1.2 0 0 1 0.942,1.35 l -0.079,0.915 -2.132,-0.192 0.089,-1 a 1.033,1.033 0 0 1 1.179,-1.073 m 0.051,-0.634 a 1.618,1.618 0 0 0 -1.775,1.648 l -0.144,1.642 5.638,0.5 0.055,-0.637 -2.42,-0.216 0.082,-0.908 a 1.8,1.8 0 0 0 -1.436,-2.032"
         transform="translate(-149.44,-124.44)" />
      <path
         style="fill:#ffffff;fill-rule:evenodd"
         inkscape:connector-curvature="0"
         id="Path_99-0"
         data-name="Path 99"
         d="m 231.726,174.273 0.117,2.31 -2.8,-1 z m 1.556,-1.463 -5.562,2.725 v 0.226 l 5.806,2.1 0.233,-0.579 -1.371,-0.5 -0.151,-2.773 1.289,-0.637 z"
         transform="translate(-149.677,-113.585)" />
      <path
         style="fill:#ffffff;fill-rule:evenodd"
         inkscape:connector-curvature="0"
         id="Path_100-2"
         data-name="Path 100"
         d="m 232.109,165.964 -5.566,1.008 -0.113,-0.627 5.566,-1 z"
         transform="translate(-148.829,-108.675)" />
      <path
         style="fill:#ffffff;fill-rule:evenodd"
         inkscape:connector-curvature="0"
         id="Path_101-9"
         data-name="Path 101"
         d="m 226.482,142.913 -0.439,-1.261 0.514,-0.182 0.709,2.032 -0.723,0.26 a 2.908,2.908 0 0 0 -2.742,-1.011 2.483,2.483 0 0 0 1.621,4.654 2.907,2.907 0 0 0 1.515,-2.481 l 0.723,-0.257 0.706,2.039 -0.518,0.182 -0.442,-1.268 a 2.885,2.885 0 1 1 -3.818,-3.475 3.01,3.01 0 0 1 2.879,0.768"
         transform="translate(-145.785,-92.986)" />
      <path
         style="fill:#ffffff;fill-rule:evenodd"
         inkscape:connector-curvature="0"
         id="Path_102-2"
         data-name="Path 102"
         d="m 219.71,129.1 -0.278,0.165 -3.167,-0.082 -1.131,2.378 -0.4,0.223 -1.734,-3.043 0.48,-0.267 1.319,2.32 1.073,-2.252 2.937,0.072 -1.378,-2.426 0.473,-0.267 z"
         transform="translate(-140.001,-82.765)" />
      <path
         style="fill:#ffffff;fill-rule:evenodd"
         inkscape:connector-curvature="0"
         id="Path_103-1"
         data-name="Path 103"
         d="m 18.057,161.924 h 0.014 l 4.527,-2.176 -3.965,-1.124 0.2,-0.6 5.547,1.576 -5.213,2.543 4.433,0.857 -0.123,0.627 -5.549,-1.083 z"
         transform="translate(-11.785,-103.864)" />
      <path
         style="fill:#ffffff;fill-rule:evenodd"
         inkscape:connector-curvature="0"
         id="Path_104-9"
         data-name="Path 104"
         d="m 150.333,283.06 a 2.354,2.354 0 0 1 -1.919,2.814 2.3,2.3 0 0 1 -2.9,-1.789 2.358,2.358 0 0 1 1.919,-2.81 2.307,2.307 0 0 1 2.9,1.786 m 0.624,-0.12 a 2.922,2.922 0 0 0 -3.643,-2.259 2.963,2.963 0 0 0 -2.416,3.537 3.092,3.092 0 0 0 6.046,-1.278"
         transform="translate(-95.193,-184.433)" />
      <path
         style="fill:#ffffff;fill-rule:evenodd"
         inkscape:connector-curvature="0"
         id="Path_105-3"
         data-name="Path 105"
         d="m 152.291,288 -3.335,0.709 -0.117,-0.559 3.335,-0.7 z"
         transform="translate(-97.83,-188.936)" />
      <path
         style="fill:#ffffff;fill-rule:evenodd"
         inkscape:connector-curvature="0"
         id="Path_106-1"
         data-name="Path 106"
         d="m 202.449,254.6 -0.01,-0.007 -4.976,-0.7 2.67,3.136 -0.5,0.387 -3.725,-4.4 5.741,0.778 -3.211,-3.174 0.452,-0.449 4.006,3.979 z"
         transform="translate(-128.768,-164.433)" />
      <path
         style="fill:#d9c28c;fill-rule:evenodd"
         inkscape:connector-curvature="0"
         id="Path_107-2"
         data-name="Path 107"
         d="m 20.387,29.88 3.139,3.876 4.658,-1.789 -2.718,4.181 3.139,3.88 -4.819,-1.292 -2.717,4.184 -0.26,-4.983 -4.819,-1.288 4.658,-1.789 z"
         transform="translate(-10.51,-19.64)" />
      <path
         style="fill:#d9c28c;fill-rule:evenodd"
         inkscape:connector-curvature="0"
         id="Path_108-3"
         data-name="Path 108"
         d="m 85.965,0 2.108,4.52 4.949,-0.607 -3.647,3.4 2.108,4.52 -4.363,-2.415 -3.65,3.4 0.953,-4.9 L 80.06,5.5 85.012,4.9 Z"
         transform="translate(-52.622)" />
      <path
         style="fill:#d9c28c;fill-rule:evenodd"
         inkscape:connector-curvature="0"
         id="Path_109-5"
         data-name="Path 109"
         d="m 151.7,0 0.949,4.9 4.951,0.6 -4.363,2.42 0.953,4.9 -3.65,-3.4 -4.363,2.42 2.108,-4.52 -3.646,-3.4 4.949,0.607 z"
         transform="translate(-95.069)" />
      <path
         style="fill:#d9c28c;fill-rule:evenodd"
         inkscape:connector-curvature="0"
         id="Path_110-7"
         data-name="Path 110"
         d="m 217.938,29.88 -0.26,4.98 4.658,1.789 -4.819,1.289 -0.26,4.983 -2.718,-4.185 -4.819,1.292 3.139,-3.876 -2.718,-4.185 4.658,1.789 z"
         transform="translate(-137.845,-19.64)" />
    </g>
  </g>
</svg>
